<svg width="88" height="36" viewBox="0 0 88 36" fill="none" xmlns="http://www.w3.org/2000/svg">
<rect width="88" height="36" rx="18" fill="#32254A"/>
<path d="M17.2303 22H14.2729V13.2727H17.29C18.1564 13.2727 18.9007 13.4474 19.5229 13.7969C20.1479 14.1435 20.628 14.642 20.9632 15.2926C21.2985 15.9432 21.4661 16.7216 21.4661 17.6278C21.4661 18.5369 21.2971 19.3182 20.959 19.9716C20.6238 20.625 20.1394 21.1264 19.5059 21.4759C18.8752 21.8253 18.1167 22 17.2303 22ZM15.8539 20.6321H17.1536C17.7615 20.6321 18.2686 20.5213 18.6749 20.2997C19.0811 20.0753 19.3865 19.7415 19.5911 19.2983C19.7956 18.8523 19.8979 18.2955 19.8979 17.6278C19.8979 16.9602 19.7956 16.4062 19.5911 15.9659C19.3865 15.5227 19.084 15.1918 18.6834 14.973C18.2857 14.7514 17.7914 14.6406 17.2005 14.6406H15.8539V20.6321ZM24.7836 22.1321C24.3688 22.1321 23.9952 22.0582 23.6628 21.9105C23.3333 21.7599 23.0719 21.5384 22.8787 21.2457C22.6884 20.9531 22.5932 20.5923 22.5932 20.1634C22.5932 19.794 22.6614 19.4886 22.7978 19.2472C22.9341 19.0057 23.1202 18.8125 23.356 18.6676C23.5918 18.5227 23.8574 18.4134 24.1529 18.3395C24.4512 18.2628 24.7594 18.2074 25.0776 18.1733C25.4611 18.1335 25.7722 18.098 26.0108 18.0668C26.2495 18.0327 26.4228 17.9815 26.5307 17.9134C26.6415 17.8423 26.6969 17.733 26.6969 17.5852V17.5597C26.6969 17.2386 26.6017 16.9901 26.4114 16.8139C26.2211 16.6378 25.9469 16.5497 25.589 16.5497C25.2111 16.5497 24.9114 16.6321 24.6898 16.7969C24.4711 16.9616 24.3233 17.1562 24.2466 17.3807L22.8063 17.1761C22.9199 16.7784 23.1074 16.446 23.3688 16.179C23.6301 15.9091 23.9498 15.7074 24.3276 15.5739C24.7054 15.4375 25.123 15.3693 25.5804 15.3693C25.8958 15.3693 26.2097 15.4062 26.5222 15.4801C26.8347 15.554 27.1202 15.6761 27.3787 15.8466C27.6373 16.0142 27.8446 16.2429 28.0009 16.5327C28.16 16.8224 28.2395 17.1847 28.2395 17.6193V22H26.7566V21.1009H26.7054C26.6117 21.2827 26.4796 21.4531 26.3091 21.6122C26.1415 21.7685 25.9299 21.8949 25.6742 21.9915C25.4213 22.0852 25.1245 22.1321 24.7836 22.1321ZM25.1841 20.9986C25.4938 20.9986 25.7623 20.9375 25.9895 20.8153C26.2168 20.6903 26.3915 20.5256 26.5137 20.321C26.6387 20.1165 26.7012 19.8935 26.7012 19.652V18.8807C26.6529 18.9205 26.5705 18.9574 26.454 18.9915C26.3404 19.0256 26.2125 19.0554 26.0705 19.081C25.9284 19.1065 25.7878 19.1293 25.6486 19.1491C25.5094 19.169 25.3887 19.1861 25.2864 19.2003C25.0563 19.2315 24.8503 19.2827 24.6685 19.3537C24.4867 19.4247 24.3432 19.5241 24.2381 19.652C24.133 19.777 24.0804 19.9389 24.0804 20.1378C24.0804 20.4219 24.1841 20.6364 24.3915 20.7812C24.5989 20.9261 24.8631 20.9986 25.1841 20.9986ZM29.7907 22V15.4545H31.2864V16.5455H31.3546C31.4739 16.1676 31.6784 15.8764 31.9682 15.6719C32.2608 15.4645 32.5946 15.3608 32.9696 15.3608C33.0549 15.3608 33.15 15.3651 33.2551 15.3736C33.3631 15.3793 33.4526 15.3892 33.5236 15.4034V16.8224C33.4583 16.7997 33.3546 16.7798 33.2125 16.7628C33.0733 16.7429 32.9384 16.733 32.8077 16.733C32.5265 16.733 32.2736 16.794 32.0492 16.9162C31.8276 17.0355 31.6529 17.2017 31.525 17.4148C31.3972 17.6278 31.3333 17.8736 31.3333 18.152V22H29.7907ZM35.9547 19.946L35.9505 18.0838H36.1976L38.5499 15.4545H40.3525L37.459 18.6761H37.1394L35.9547 19.946ZM34.5485 22V13.2727H36.0911V22H34.5485ZM38.6564 22L36.5257 19.0213L37.5655 17.9347L40.5016 22H38.6564Z" fill="#EAEAEA"/>
<circle cx="70" cy="18" r="16" fill="#EAEAEA"/>
<path d="M70 27C67.5 27 65.375 26.125 63.625 24.375C61.875 22.625 61 20.5 61 18C61 15.5 61.875 13.375 63.625 11.625C65.375 9.875 67.5 9 70 9C70.2333 9 70.4627 9.00833 70.688 9.025C70.9133 9.04167 71.134 9.06667 71.35 9.1C70.6667 9.58333 70.1207 10.2127 69.712 10.988C69.3033 11.7633 69.0993 12.6007 69.1 13.5C69.1 15 69.625 16.275 70.675 17.325C71.725 18.375 73 18.9 74.5 18.9C75.4167 18.9 76.2583 18.6957 77.025 18.287C77.7917 17.8783 78.4167 17.3327 78.9 16.65C78.9333 16.8667 78.9583 17.0873 78.975 17.312C78.9917 17.5367 79 17.766 79 18C79 20.5 78.125 22.625 76.375 24.375C74.625 26.125 72.5 27 70 27Z" fill="#32254A"/>
</svg>
