<svg width="88" height="36" viewBox="0 0 88 36" fill="none" xmlns="http://www.w3.org/2000/svg">
<rect width="88" height="36" rx="18" fill="#F0C401"/>
<circle cx="18" cy="18" r="16" fill="white"/>
<path d="M18 23C16.6167 23 15.4373 22.5123 14.462 21.537C13.4867 20.5617 12.9993 19.3827 13 18C13 16.6167 13.4877 15.4373 14.463 14.462C15.4383 13.4867 16.6173 12.9993 18 13C19.3833 13 20.5627 13.4877 21.538 14.463C22.5133 15.4383 23.0007 16.6173 23 18C23 19.3833 22.5123 20.5627 21.537 21.538C20.5617 22.5133 19.3827 23.0007 18 23ZM8 19C7.71667 19 7.479 18.904 7.287 18.712C7.095 18.52 6.99934 18.2827 7 18C7 17.7167 7.096 17.479 7.288 17.287C7.48 17.095 7.71734 16.9993 8 17H10C10.2833 17 10.521 17.096 10.713 17.288C10.905 17.48 11.0007 17.7173 11 18C11 18.2833 10.904 18.521 10.712 18.713C10.52 18.905 10.2827 19.0007 10 19H8ZM26 19C25.7167 19 25.479 18.904 25.287 18.712C25.095 18.52 24.9993 18.2827 25 18C25 17.7167 25.096 17.479 25.288 17.287C25.48 17.095 25.7173 16.9993 26 17H28C28.2833 17 28.521 17.096 28.713 17.288C28.905 17.48 29.0007 17.7173 29 18C29 18.2833 28.904 18.521 28.712 18.713C28.52 18.905 28.2827 19.0007 28 19H26ZM18 11C17.7167 11 17.479 10.904 17.287 10.712C17.095 10.52 16.9993 10.2827 17 10V8C17 7.71667 17.096 7.479 17.288 7.287C17.48 7.095 17.7173 6.99934 18 7C18.2833 7 18.521 7.096 18.713 7.288C18.905 7.48 19.0007 7.71734 19 8V10C19 10.2833 18.904 10.521 18.712 10.713C18.52 10.905 18.2827 11.0007 18 11ZM18 29C17.7167 29 17.479 28.904 17.287 28.712C17.095 28.52 16.9993 28.2827 17 28V26C17 25.7167 17.096 25.479 17.288 25.287C17.48 25.095 17.7173 24.9993 18 25C18.2833 25 18.521 25.096 18.713 25.288C18.905 25.48 19.0007 25.7173 19 26V28C19 28.2833 18.904 28.521 18.712 28.713C18.52 28.905 18.2827 29.0007 18 29ZM11.65 13.05L10.575 12C10.375 11.8167 10.279 11.5833 10.287 11.3C10.295 11.0167 10.391 10.775 10.575 10.575C10.775 10.375 11.0167 10.275 11.3 10.275C11.5833 10.275 11.8167 10.375 12 10.575L13.05 11.65C13.2333 11.85 13.325 12.0833 13.325 12.35C13.325 12.6167 13.2333 12.85 13.05 13.05C12.8667 13.25 12.6377 13.346 12.363 13.338C12.0883 13.33 11.8507 13.234 11.65 13.05ZM24 25.425L22.95 24.35C22.7667 24.15 22.675 23.9123 22.675 23.637C22.675 23.3617 22.7667 23.1327 22.95 22.95C23.1333 22.75 23.3627 22.6543 23.638 22.663C23.9133 22.6717 24.1507 22.7673 24.35 22.95L25.425 24C25.625 24.1833 25.721 24.4167 25.713 24.7C25.705 24.9833 25.609 25.225 25.425 25.425C25.225 25.625 24.9833 25.725 24.7 25.725C24.4167 25.725 24.1833 25.625 24 25.425ZM22.95 13.05C22.75 12.8667 22.654 12.6377 22.662 12.363C22.67 12.0883 22.766 11.8507 22.95 11.65L24 10.575C24.1833 10.375 24.4167 10.279 24.7 10.287C24.9833 10.295 25.225 10.391 25.425 10.575C25.625 10.775 25.725 11.0167 25.725 11.3C25.725 11.5833 25.625 11.8167 25.425 12L24.35 13.05C24.15 13.2333 23.9167 13.325 23.65 13.325C23.3833 13.325 23.15 13.2333 22.95 13.05ZM10.575 25.425C10.375 25.225 10.275 24.9833 10.275 24.7C10.275 24.4167 10.375 24.1833 10.575 24L11.65 22.95C11.85 22.7667 12.0873 22.675 12.362 22.675C12.6367 22.675 12.866 22.7667 13.05 22.95C13.25 23.1333 13.346 23.3627 13.338 23.638C13.33 23.9133 13.234 24.1507 13.05 24.35L12 25.425C11.8167 25.625 11.5833 25.721 11.3 25.713C11.0167 25.705 10.775 25.609 10.575 25.425Z" fill="#F0C401"/>
<path d="M47.1889 22V13.2727H48.7699V20.6747H52.6136V22H47.1889ZM53.9176 22V15.4545H55.4602V22H53.9176ZM54.6932 14.5256C54.4489 14.5256 54.2386 14.4446 54.0625 14.2827C53.8864 14.1179 53.7983 13.9205 53.7983 13.6903C53.7983 13.4574 53.8864 13.2599 54.0625 13.098C54.2386 12.9332 54.4489 12.8509 54.6932 12.8509C54.9403 12.8509 55.1506 12.9332 55.3239 13.098C55.5 13.2599 55.5881 13.4574 55.5881 13.6903C55.5881 13.9205 55.5 14.1179 55.3239 14.2827C55.1506 14.4446 54.9403 14.5256 54.6932 14.5256ZM59.8931 24.5909C59.3391 24.5909 58.8633 24.5156 58.4656 24.3651C58.0678 24.2173 57.7482 24.0185 57.5067 23.7685C57.2653 23.5185 57.0977 23.2415 57.0039 22.9375L58.3931 22.6009C58.4556 22.7287 58.5465 22.8551 58.6658 22.9801C58.7852 23.108 58.9457 23.2131 59.1474 23.2955C59.3519 23.3807 59.609 23.4233 59.9187 23.4233C60.3562 23.4233 60.7184 23.3168 61.0053 23.1037C61.2923 22.8935 61.4357 22.5469 61.4357 22.0639V20.8239H61.359C61.2795 20.983 61.163 21.1463 61.0096 21.3139C60.859 21.4815 60.6587 21.6222 60.4087 21.7358C60.1616 21.8494 59.8505 21.9062 59.4755 21.9062C58.9727 21.9062 58.5167 21.7884 58.1076 21.5526C57.7013 21.3139 57.3775 20.9588 57.136 20.4872C56.8974 20.0128 56.7781 19.419 56.7781 18.706C56.7781 17.9872 56.8974 17.3807 57.136 16.8864C57.3775 16.3892 57.7028 16.0128 58.1119 15.7571C58.521 15.4986 58.9769 15.3693 59.4798 15.3693C59.8633 15.3693 60.1786 15.4347 60.4258 15.5653C60.6758 15.6932 60.8746 15.848 61.0224 16.0298C61.1701 16.2088 61.2823 16.3778 61.359 16.5369H61.4442V15.4545H62.9656V22.1065C62.9656 22.6662 62.832 23.1293 62.565 23.4957C62.2979 23.8622 61.9329 24.1364 61.4698 24.3182C61.0067 24.5 60.4812 24.5909 59.8931 24.5909ZM59.9059 20.696C60.2326 20.696 60.511 20.6165 60.7411 20.4574C60.9712 20.2983 61.146 20.0696 61.2653 19.7713C61.3846 19.473 61.4442 19.1151 61.4442 18.6974C61.4442 18.2855 61.3846 17.9247 61.2653 17.6151C61.1488 17.3054 60.9755 17.0653 60.7454 16.8949C60.5181 16.7216 60.2383 16.6349 59.9059 16.6349C59.5621 16.6349 59.2752 16.7244 59.0451 16.9034C58.815 17.0824 58.6417 17.3281 58.5252 17.6406C58.4087 17.9503 58.3505 18.3026 58.3505 18.6974C58.3505 19.098 58.4087 19.4489 58.5252 19.75C58.6445 20.0483 58.8192 20.2812 59.0494 20.4489C59.2823 20.6136 59.5678 20.696 59.9059 20.696ZM66.0891 18.1648V22H64.5465V13.2727H66.055V16.5668H66.1317C66.2852 16.1974 66.5224 15.9062 66.8434 15.6932C67.1673 15.4773 67.5792 15.3693 68.0792 15.3693C68.5337 15.3693 68.93 15.4645 69.2681 15.6548C69.6062 15.8452 69.8675 16.1236 70.0522 16.4901C70.2397 16.8565 70.3335 17.304 70.3335 17.8324V22H68.7908V18.071C68.7908 17.6307 68.6772 17.2884 68.4499 17.044C68.2255 16.7969 67.9102 16.6733 67.5039 16.6733C67.2312 16.6733 66.9869 16.733 66.771 16.8523C66.5579 16.9687 66.3903 17.1378 66.2681 17.3594C66.1488 17.581 66.0891 17.8494 66.0891 18.1648ZM75.1744 15.4545V16.6477H71.4116V15.4545H75.1744ZM72.3406 13.8864H73.8832V20.0312C73.8832 20.2386 73.9144 20.3977 73.9769 20.5085C74.0423 20.6165 74.1275 20.6903 74.2326 20.7301C74.3377 20.7699 74.4542 20.7898 74.582 20.7898C74.6786 20.7898 74.7667 20.7827 74.8462 20.7685C74.9286 20.7543 74.9911 20.7415 75.0337 20.7301L75.2937 21.9361C75.2113 21.9645 75.0934 21.9957 74.94 22.0298C74.7894 22.0639 74.6048 22.0838 74.386 22.0895C73.9996 22.1009 73.6516 22.0426 73.342 21.9148C73.0323 21.7841 72.7866 21.5824 72.6048 21.3097C72.4258 21.0369 72.3377 20.696 72.3406 20.2869V13.8864Z" fill="white"/>
</svg>
