<?xml version="1.0" encoding="utf-8"?>
<!-- Generator: Adobe Illustrator 27.9.0, SVG Export Plug-In . SVG Version: 6.00 Build 0)  -->
<svg version="1.1" id="레이어_1" xmlns="http://www.w3.org/2000/svg" xmlns:xlink="http://www.w3.org/1999/xlink" x="0px"
	 y="0px" viewBox="0 0 871 278" style="enable-background:new 0 0 871 278;" xml:space="preserve">
<style type="text/css">
	.st0{fill:url(#SVGID_1_);}
	.st1{fill:url(#SVGID_00000029751118344989627920000016701057593479223728_);}
</style>
<linearGradient id="SVGID_1_" gradientUnits="userSpaceOnUse" x1="6.499" y1="282.2711" x2="245.5853" y2="420.3077" gradientTransform="matrix(1 0 0 1 0 -212)">
	<stop  offset="0.3324" style="stop-color:#B2A8EE"/>
	<stop  offset="1" style="stop-color:#7269FF"/>
</linearGradient>
<path class="st0" d="M125.6,128.3v141.8l118.2-58.7V69.2L125.6,128.3z M231.9,203.1l-94.6,47V136.6l94.6-47.3V203.1L231.9,203.1z
	 M178.6,165.6l-29.5,14.7v-35.4l29.5-14.7V165.6z M220,120.1l-29.6,14.8v-10.6l29.6-14.8V120.1z M220,145l-29.6,14.7v-10.6
	l29.6-14.7V145z M220,169.9l-70.9,35.3v-10.6l70.9-35.3V169.9z M220,194.7L149.1,230v-10.6l70.9-35.2V194.7z M121.1,42.5L85.7,25.2
	L121,6.8l35.8,17.3L121.1,42.5z M160.5,101.1l-35.8-17.7l35.8-18.1L196.7,83L160.5,101.1z M85.9,103l35.3-17.9l35.7,17.7l-35.7,17.9
	L85.9,103z M82.4,101.3L47.5,83.9L82.3,66l35.3,17.4L82.4,101.3z M44.1,82.1L9.6,64.9L43.9,47l34.8,17.2L44.1,82.1z M82.3,62.4
	L47.4,45.2l34.8-18.1l35.4,17.2L82.3,62.4z M164.1,63.5L200.4,45l36.7,17.7l-36.8,18.4L164.1,63.5z M160.5,61.7l-35.8-17.4
	l35.8-18.4l36.2,17.4L160.5,61.7z M156.9,63.5l-35.7,18.1L85.9,64.2l35.3-18.1L156.9,63.5z M41.6,133.8L7.4,116.7V73.6l34.2,17.1
	V133.8z M116.8,218.8l-34.2-17.1v-43.1l34.2,17.1V218.8z M82.6,249.1V206l34.2,17.1v43.1L82.6,249.1z M79.2,247.4L45,230.3v-43.1
	l34.2,17.1V247.4z M41.6,228.6L7.4,211.5v-43.1l34.2,17.1V228.6z M41.6,181.1L7.4,164v-43l34.2,17.1V181.1z M82.6,154.3v-43.1
	l34.2,17.1v43.1L82.6,154.3z M79.2,152.6L45,135.5V92.4l34.2,17.1V152.6L79.2,152.6z M79.2,156.9V200L45,182.9v-43.1L79.2,156.9z"/>
<linearGradient id="SVGID_00000129913833387564651790000001070178136036464771_" gradientUnits="userSpaceOnUse" x1="377.4747" y1="266.8951" x2="792.2263" y2="506.352" gradientTransform="matrix(1 0 0 1 0 -212)">
	<stop  offset="0" style="stop-color:#7269FF"/>
	<stop  offset="1" style="stop-color:#B2A8EE"/>
</linearGradient>
<path style="fill:url(#SVGID_00000129913833387564651790000001070178136036464771_);" d="M485.2,86c0,2.2-56.2,105.2-66.8,139.8
	c-1,4.3-13.9-8-13.9-9.6c7.1-26,7.2-26.4,49.5-105.8c-76.4,62.3-96,110.8-99.1,110.8s-11.8-9.6-11.8-11
	c9.6-17.6,47.2-96.7,47.2-102.8C340.8,153,299,226.5,297.1,226.5c-2,0-11.6-8.8-11.6-12.3c40.1-69.3,115-145.9,125.1-145.9
	c5.1,0,10.2,11.6,10.2,13.7c0,1-6.7,15.9-13.3,30.4l-13.3,29c13.9-13.1,26.4-24.7,37.6-35.1C450.4,88.7,470.4,71,471.4,71
	s2,1.2,2.7,2.2c0.6,0.6,1,1.2,1.2,2l1.6-1.6c1-1,2-1.6,2.9-1.6C481.8,72,485.2,83.6,485.2,86z M312.8,176c0.6-1,0.8-1.8,1.4-2.3
	l0.6-1l-0.6,1l-1.8,2.2c-0.4,0.8-1.2,1.8-2.3,3.1c-0.6,1.2-1.6,2.5-2.5,3.9l-2.4,3.7l-2.2,3.3c-0.8,1-1,1.8-1.6,2.3
	c-0.2,0.4-0.4,0.8-0.4,1l0.6-0.8c0.6-0.6,1-1.4,1.6-2.3c0.8-1,1.6-1.8,2.3-3.1c0.8-1.4,1.8-2.3,2.5-3.7l2.5-3.9L312.8,176z
	 M363.2,115.1l6.5-7.2c1-1,1.8-2,2.3-2.7l-0.8,0.6l-1.8,2c-1.8,1.6-4.1,3.9-6.9,6.9l-4.3,4.7l-4.9,5.3c-3.3,3.9-6.5,7.8-10.2,11.9
	l-9.8,12.1l-8.4,10.8c-2.3,3.1-4.3,5.7-5.7,7.8c-0.8,1-1,1.6-1.6,2.2c-0.2,0.4-0.4,0.6-0.4,0.8c0.6-0.8,1.4-1.8,2.3-2.7l6.1-7.4
	l8.6-10.6c3.1-3.9,6.3-8,10-11.9l10-11.9L363.2,115.1z M389.4,125.5c0.2-0.2,0.2-0.4,0.2-0.6l-1,2l-2.5,5.1c-1,2.2-2,4.5-3.3,7.1
	c-1.4,2.9-2.2,5.5-3.5,8.4c-1.4,2.9-2.5,5.7-3.5,8.2c-1.4,2.9-2.2,5.3-2.9,7.4l-2.2,5.1l-0.6,1.4c-0.2,0.2-0.2,0.4-0.2,0.6l1-2
	c0.6-1.4,1.6-2.7,2.5-4.9c1.4-2.2,2.2-4.5,3.5-7l3.7-8.2c1.4-2.9,2.3-5.5,3.3-8.4c1.4-2.9,2.2-5.3,2.9-7.4c1-2.2,1.4-3.7,2-5.1
	C389,126.3,389.2,125.7,389.4,125.5z M433.5,154.9l0.4-0.8l-0.4,0.6c-0.2,0.6-0.4,1-1,1.8c-0.8,1.8-2.2,3.7-3.5,6.7l-4.7,9.6
	l-5.1,11c-0.8,1.8-1.6,3.5-2.4,5.7l-2.3,5.5c-1.4,3.7-2.3,6.9-3.7,9.8l-1.2,3.9c-0.6,1.4-0.8,2.2-1,3.1c-0.6,1-0.4,1.4-0.6,2
	c-0.2,0.2-0.2,0.6-0.2,0.8c0-0.2,0-0.6,0.2-0.8c0.2-0.6,0.2-1,0.8-2l1.2-2.9l1.6-3.9c1.4-2.9,2.7-6.1,4.1-9.8l4.9-11l9.2-20.8
	c1.4-2.9,2.3-5.1,2.9-6.9C433.3,155.9,433.3,155.5,433.5,154.9z M427.8,172.9c0.6-1.4,0.6-2.3,1.2-3.1l0.6-1.4l-0.6,1.2
	c-0.6,0.8-1,2-1.6,3.3l-2.2,4.5l-2.3,5.1c-0.8,1.8-1.6,3.5-2.2,5.3l-2,4.5c-0.6,1.4-0.6,2.5-1.2,3.3l-0.6,1.2l0.6-1.2
	c0.6-0.8,1-1.8,1.6-3.1l2.2-4.5l2.3-5.1c0.8-1.8,1.4-3.7,2.2-5.3L427.8,172.9z M437.2,106.3l4.3-4.3c1.4-1.4,2.3-2.3,2.9-3.1
	l1.2-1.2c-0.2,0-0.2,0-0.4,0.2l-1,0.8l-3.3,2.7c-1.4,1.4-2.9,2.5-4.7,3.9l-5.1,4.7l-5.1,4.9l-4.5,4.3l-2.9,3.1l-0.8,1l-0.2,0.2
	l0.2-0.2l1-0.8c0.8-0.8,2-1.4,3.3-2.7c1.4-1.4,3.1-2.5,4.7-4.1c1.8-1.4,3.5-2.9,5.3-4.5L437.2,106.3z M452.1,95.2l1.6-1.8l0.6-0.6
	l-0.8,0.6l-1.8,1.4c-1.4,1.4-3.1,2.9-5.3,4.7l-5.1,4.9c-0.6,0.8-1,1-1.6,1.6l-0.6,0.6c0.2,0,0.4-0.2,0.6-0.4c0.6-0.6,1.2-0.8,2-1.6
	c1.4-1.4,3.1-2.9,5.3-4.5L452.1,95.2z M570.2,172.3c0,7.4-28,54.2-46.6,54.2c-6.9,0-18.2-13.1-18.2-18.6v-1.6
	c-10.8,10.8-23.1,20.2-30.7,20.2c-12.3,0-27.4-19.6-27.4-29.8c0-31.5,50.7-79.5,72.1-79.5c16.8,0,21.3,27.4,16.6,27.4
	c-5.3,0-2.9-10.8-11.9-10.8c-18.6,0-63.6,46.2-63.6,72.3c0,3.5,1.6,5.3,4.5,5.3c16.6,0,45.4-40.3,53.7-50.9c1-1.8,1.8-2.5,2.3-2.5
	c2.2,0,13.1,12.9,13.1,15.5c0,2.3-16.8,34.1-12.5,34.1c15.3,0,35.8-43.3,40-47.4C562.9,158.6,570.2,168,570.2,172.3z M462.8,165.9
	c2.2-2.5,3.9-5.3,6.1-7.8s4.3-5.1,6.7-7.6c4.5-4.9,9.6-9.6,14.5-13.7c2.3-2.2,4.7-4.1,7-5.7c2.3-1.8,4.7-3.3,6.9-4.7
	c2.3-1.6,4.3-2.7,6.1-3.5c0.8-0.6,1.8-0.6,2.5-1.2c0.6-0.2,1.4-0.6,2.3-0.8l2-0.6c0.4-0.2,0.8-0.2,1.4-0.2c0.6,0,0.6-0.2,0.8-0.2
	h0.4h-1.2c-0.6,0-0.8,0.2-1.4,0.2l-2,0.4c-0.8,0.2-1.6,0.6-2.5,0.8c-0.8,0.6-1.8,0.6-2.5,1.2c-2.2,0.8-4.1,1.8-6.3,3.1
	c-4.5,2.5-9.2,6.1-14.5,10.2c-4.9,4.1-10,8.4-14.7,13.7c-2.2,2.5-4.5,5.1-6.7,7.8c-2.2,2.5-4.1,5.3-5.9,7.8s-3.5,5.3-4.9,7.8l-2,3.9
	l-1.8,3.7c-1,2.4-1.6,4.5-2.2,6.7c-0.6,1-0.6,2-0.8,2.7l-0.4,2.5c-0.2,1.4-0.2,2.5-0.2,3.3v1.4v-0.4c0-0.4,0-0.8,0.2-1v-1.4l0.4-2
	c0-0.8,0.2-1.6,0.6-2.3c0.2-1.4,0.6-2.4,0.8-2.9c0.6-2,1.4-4.1,2.4-6.5l1.8-3.5c0.6-1.4,1.4-2.3,2.2-3.7
	C459.3,170.9,461.1,168.4,462.8,165.9z M501,207l1.2-1.2l-1.2,1l-3.3,2.5c-1.4,1.4-2.9,2.3-4.7,3.7s-3.3,2.5-5.5,3.9l-2.9,2
	c-0.8,0.6-1.8,1-2.7,1.6c-1,0.6-2,0.8-2.9,1.4c-0.8,0.6-1.8,0.6-2.5,0.8c-0.2,0.2-0.6,0.2-1.2,0.2c-0.2,0.2-0.6,0.2-1.2,0.2h-1.8
	c-0.6,0-1-0.2-1.2-0.2h-0.4h0.4l1.2,0.4c0.6,0,1.2,0.2,1.8,0h1.2c0.6,0,1,0,1.4-0.2c0.8-0.2,1.8-0.2,2.5-0.8c1-0.2,2-0.6,2.9-1.2
	l2.9-1.6l2.9-2c2.2-1.4,3.7-2.7,5.5-4.1c1.8-1.4,3.1-2.3,4.5-3.7C499.3,208.7,500.2,207.8,501,207z M481.4,206l-0.2,0.2L481.4,206
	l0.8-0.6c0.8-0.6,1.4-1.2,2.7-2c1-0.8,2.2-1.8,3.5-3.1c1.4-1,2.5-2.3,3.9-3.7s2.5-2.5,3.5-3.9c1.4-1.4,2.2-2.5,3.1-3.5
	c0.8-1,1.4-2.2,2-2.7l0.8-1l-1,1l-2.2,2.3c-1,1-1.8,2.2-3.1,3.5l-3.7,3.9l-3.7,3.7c-1.4,1.4-2.4,2.3-3.3,3.1c-1.4,1-2,1.8-2.5,2.3
	L481.4,206z M509.4,125.7l1-0.6c0,0.2,0,0.2-0.2,0.2s-0.6,0.2-0.8,0.2c-0.6,0.6-1.4,0.8-2.7,1.4c-1,0.6-2.2,1.2-3.5,2.2
	c-1.4,0.8-2.7,1.6-4.1,2.5l-3.7,2.9c-1.4,1-2.4,2-3.1,2.7l-2.2,2.2l-0.8,0.8c0.2-0.2,0.4-0.6,0.8-0.8l2.3-1.8l7.2-5.5l3.9-2.7
	c1.4-0.8,2.2-1.6,3.5-2.2C508.1,126.7,508.9,126.3,509.4,125.7z M659.5,171.7c-10,19.8-33.9,54.8-54.4,54.8
	c-7,0-18.6-12.3-18.6-18.4c0-12.5,16.5-38,25.9-60.1c-41.1,41.1-59.5,78.3-62.1,78.3c-3.1,0-11.6-7.4-11.6-14.3
	c0-6.7,41.1-89.1,41.1-96.5c0-0.2,0-0.6,0.2-0.8c0.2-0.6,0.8-1,1.6-1c4.1,0,12.1,5.5,12.1,11.9c0,3.3-7,20.8-14.3,37.8
	c16.1-19.2,36.6-42.7,40.7-45.2c0.2,0,0.4-0.2,0.6-0.2s0.2,0,0.4,0.2c0.4,0,0.6,0,0.8,0.2c3.1,1.6,11,7.8,11,18.2
	c0,11.8-28.8,58.6-28.8,70.5c12.5,0,30.7-22.9,43.7-47.2C649.9,156.5,661,168,659.5,171.7z M574.3,163.5c1.4-2.9,2.2-5.5,3.5-8
	l2.7-7l2-4.9l0.4-1.4c0-0.2,0-0.4,0.2-0.6l-9.4,21.5l-6.5,14.9l-2.2,4.9c-0.4,0.6-0.6,1.2-0.8,1.8c0.2-0.6,0.6-1.2,1-1.8l2.3-4.7
	c1-2.2,1.8-4.3,3.1-6.9C572.1,168.8,572.9,166.1,574.3,163.5z M577.4,161.3c0-0.2,0-0.2,0.2-0.4s0-0.6,0.6-1.2l2.2-4.3
	c1-1.8,2-3.9,2.9-6.1c1-2.3,2.2-4.7,3.1-7.2c1-2.3,1.8-4.9,2.5-7.2l2-6.5c0.4-2,0.6-3.5,0.6-4.9v-0.8c0-0.2,0-0.4-0.2-0.6
	c-0.2-0.2-0.2-0.2-0.2-0.4c0,0,0,0.2,0.2,0.4v0.6v0.8l-0.4,2c-0.6,0.8-0.6,1.8-0.8,2.5c-0.6,2.2-1.6,4.1-2.3,6.5l-2.9,7
	c-1,2.5-2,4.9-2.7,7.2l-2.5,6.3c-0.6,2.2-1,3.5-1.6,4.5L577.4,161.3z M596.4,186.2c1.4-2.5,2.2-4.9,3.5-7.2c1-2.5,2-4.7,2.9-6.3
	c0.8-2.2,1.2-3.5,1.8-4.5l0.6-1.4c0.2-0.2,0.2-0.2,0.2-0.4c0,0.2,0,0.2-0.2,0.4s-0.6,0.6-0.8,1.2l-2.4,4.3c-1,1.8-2,3.9-3.3,6.1
	c-1.4,2.3-2.3,4.7-3.7,7.2l-3.1,7.2c-0.6,1.4-0.8,2.3-1.4,3.3c-0.6,1.4-0.8,2.3-1,3.3c-0.4,1-0.6,2-0.6,2.7
	c-0.2,0.8-0.4,1.4-0.4,2.2v1.4v0.4c0,0,0-0.2,0.2-0.4c0-0.6,0-1,0.2-1.4c0.2-1.4,0.8-2.9,1.4-4.7c0.8-2.2,1.8-4.1,2.7-6.3
	C594.4,191.1,595,188.6,596.4,186.2z M615.8,221.9l0.8-0.6l-0.8,0.4l-2.2,0.8c-1.8,0.8-3.7,1.4-6.3,1.6h-1.7c-0.6,0-1.2-0.2-1.8-0.2
	c-1-0.2-2-0.4-2.9-1l-1.2-0.6c-0.2,0-0.6-0.2-0.8-0.4c-0.6,0-0.4-0.2-0.6-0.2s-0.2,0-0.2-0.2l0.6,0.6l0.8,0.6l1.2,0.6
	c0.8,0.6,1.6,1,2.9,1.2l1.8,0.4h2c1.4,0,2.2-0.2,3.5-0.8c1.4-0.2,2.2-0.6,2.9-1.2C614.6,222.3,615.2,222.5,615.8,221.9z M608,164.3
	c-1,2.2-2,3.7-2.7,5.9c-1,1.8-1.6,3.5-2.3,5.1c-0.6,1.6-1.2,2.7-1.4,3.7c-0.2,0.6-0.4,1-0.4,1.4l0.6-1.4c0.6-0.8,0.8-2,1.6-3.5
	c1.6-2.9,3.1-6.9,5.3-10.8l2.7-5.7l2.4-5.1c0.6-1.4,1-2.7,1.6-3.7l0.6-1.4c-0.2,0.4-0.6,0.8-0.8,1.4c-0.6,0.8-1,2.2-1.8,3.5
	C611.9,156.8,610.1,160.4,608,164.3z M762.3,173.7c0,4.7-31.7,52.9-42.7,52.9c-10.8,0-24.1-16.1-25.1-27c-11.6,14.1-25.1,27-35.1,27
	c-12.3,0-27.4-19.4-27.4-29.6c0-31.7,50.7-79.7,72.1-79.7c5.5,0,9.6,2.9,12.7,6.9C730.3,88.4,745,53.9,745,52.3
	c0-7.2,15.5,7.2,15.5,12.5c0,3.5-66.4,145.9-48.6,145.9c9.2,0,39-48.2,41.3-50.5C755,158.4,762.3,168.8,762.3,173.7z M641.8,173.5
	c0.8-1.6,1.6-2.7,2.2-4.1c0.6-1,1-2,1.6-2.7l0.6-1.2c-0.2,0-0.2,0-0.2,0.2l-0.4,0.8c-0.6,0.6-1.2,1.4-2,2.7l-2.3,3.9L639,178
	c-0.8,1.6-1.4,3.3-2,4.9c-0.6,1.8-0.8,3.1-1.4,4.5c-0.6,1.4-0.4,2.5-0.6,3.3c-0.2,0.6-0.2,1-0.2,1.2c0-0.2,0-0.6,0.2-1.2
	c0.2-0.8,0.4-1.8,1-3.1c0.8-2.5,2.2-6.1,3.5-9.2L641.8,173.5z M649.7,211.7c28.2,0,55.2-61.3,62.9-76.8c-1-0.6-2.2-0.8-3.7-0.8
	c-18.6,0-63.6,46.2-63.6,72.3C645.2,209.9,646.7,211.7,649.7,211.7z M673,202.5c0,0.2,0,0.2-0.2,0.2l-0.8,0.4l-2.3,2
	c-1,0.8-2.2,1.6-3.5,2.3l-4.3,2.7c-2.9,1.6-5.9,2.7-8.6,3.3c-1.4,0.2-2.3,0.4-2.9,0.4h-1.2h0.2c0.2,0,0.4,0.2,1,0.2s1.6,0,2.9-0.2
	l2.2-0.4l2.2-0.6c0.8-0.6,1.6-0.4,2.3-1l2.4-1.2c3.1-1.8,5.7-3.7,7.6-5.5l2.3-2L673,202.5z M663.6,144.1l-1,1
	C662.8,144.9,663,144.5,663.6,144.1l2.9-2.3c1.4-1,2.5-2,3.9-3.3c1.4-1.4,2.9-2.5,4.7-3.9c1.6-1.4,3.1-2.3,4.7-3.7
	c1.4-1.4,2.7-2.2,4.1-3.1c1.4-0.8,2.2-1.6,2.9-2.2l1.2-0.8l-1.2,0.6l-3.1,2c-1.4,1-2.9,1.8-4.3,3.1c-1.6,1-3.3,2.2-4.9,3.5
	c-1.6,1.3-3.1,2.5-4.5,3.9c-1.6,1.4-2.5,2.5-3.9,3.5L663.6,144.1z M689.8,127.7c-3.3,2.2-6.5,4.3-8.8,6.5l-2.5,2.5
	c-0.6,0.6-0.4,0.6-0.6,0.8l-0.2,0.2l1-0.8l2.9-2c1.4-1,2.7-1.6,4.1-2.9l4.9-2.9c1-0.8,2-1.4,2.5-1.6c0.8-0.6,1.6-0.8,2.3-1.4
	c0.8-0.6,1.8-0.6,2.4-1.2l2.2-0.8c0.8-0.6,1.4-0.4,2-0.6c0.8-0.2,1.4-0.4,1.6-0.4c0.6,0,0.6-0.2,0.8-0.2h0.4h-0.4
	c-0.2,0-0.4-0.2-1-0.2s-1,0-1.4,0.2c-0.8,0-1.4,0.2-2.2,0.4s-1.6,0-2.4,0.6s-1.6,0.4-2.5,1c-1,0.6-2,1-2.5,1.2L689.8,127.7z
	 M704.3,158.8c0.8-2.9,1.8-5.5,2.7-8.4c-1,2.2-2,4.3-3.3,6.5l-7.4,12.9c-2.3,4.1-4.5,7.8-6.7,11.2l-4.9,7.8l-1.8,2.9l0.6-0.8l1.4-2
	c1.4-1.8,3.1-4.5,5.3-7.6c1.4-1.6,2.2-3.3,3.5-5.1c1.4-1.8,2.3-3.7,3.7-5.9L704.3,158.8z M714.9,133.9l-1.4,3.3L714.9,133.9
	c0.8-2.2,2.2-5.3,3.7-9c1.6-3.7,3.1-8.2,5.3-12.9c1.8-4.7,3.7-9.4,5.9-14.7l5.9-14.7l4.9-12.9l3.5-9.2c0.6-1.4,1-2.4,1.2-3.3
	l-1.4,3.3l-3.7,9c-1.6,3.7-3.1,8.2-5.3,12.9c-1.8,4.7-3.7,9.6-5.9,14.7c-2.2,4.9-3.9,10-5.7,14.7c-2.2,4.7-3.5,9.2-5.1,12.9
	L714.9,133.9z M741.9,70.1c0.6-2.2,1.2-3.7,1.8-5.1l0.6-2l-0.8,2l-2,4.9l-2.7,7c-1,2.9-1.8,5.3-3.1,8.2c-2.2,5.5-4.1,11.2-5.7,15.3
	l-2,4.9l-0.6,2c0.2-0.6,0.4-1.2,0.8-1.8c0.6-1.4,1.4-2.7,2.2-4.9l2.9-7c1-2.5,1.8-5.3,3.1-8.2l2.9-8.2L741.9,70.1z M860.6,172.3
	c0,7.4-28,54.2-46.6,54.2c-6.9,0-18.2-13.1-18.2-18.6v-1.6c-10.8,10.8-23.1,20.2-30.7,20.2c-12.3,0-27.4-19.6-27.4-29.8
	c0-31.5,50.7-79.5,72.1-79.5c16.8,0,21.3,27.4,16.6,27.4c-5.3,0-2.9-10.8-11.9-10.8c-18.6,0-63.6,46.2-63.6,72.3
	c0,3.5,1.6,5.3,4.5,5.3c16.6,0,45.4-40.3,53.7-50.9c1-1.8,1.8-2.5,2.3-2.5c2.2,0,13.1,12.9,13.1,15.5c0,2.3-16.8,34.1-12.5,34.1
	c15.3,0,35.8-43.3,40-47.4C853.4,158.6,860.6,168,860.6,172.3z M753.3,165.9c2.2-2.5,3.9-5.3,6.1-7.8s4.3-5.1,6.7-7.6
	c4.5-4.9,9.6-9.6,14.5-13.7c2.3-2.2,4.7-4.1,7-5.7c2.3-1.8,4.7-3.3,6.9-4.7c2.3-1.6,4.3-2.7,6.1-3.5c0.8-0.6,1.8-0.6,2.5-1.2
	c0.6-0.2,1.4-0.6,2.3-0.8l2-0.6c0.4-0.2,0.8-0.2,1.4-0.2c0.6,0,0.6-0.2,0.8-0.2h0.4h-1.2c-0.6,0-0.8,0.2-1.4,0.2l-2,0.4
	c-0.8,0.2-1.6,0.6-2.5,0.8c-0.8,0.6-1.8,0.6-2.5,1.2c-2.2,0.8-4.1,1.8-6.3,3.1c-4.5,2.5-9.2,6.1-14.5,10.2
	c-4.9,4.1-10,8.4-14.7,13.7c-2.2,2.5-4.5,5.1-6.7,7.8c-2.2,2.5-4.1,5.3-5.9,7.8s-3.5,5.3-4.9,7.8l-2,3.9l-1.8,3.7
	c-1,2.4-1.6,4.5-2.2,6.7c-0.6,1-0.6,2-0.8,2.7l-0.4,2.5c-0.2,1.4-0.2,2.5-0.2,3.3v1.4v-0.4c0-0.4,0-0.8,0.2-1v-1.4l0.4-2
	c0-0.8,0.2-1.6,0.6-2.3c0.2-1.4,0.6-2.4,0.8-2.9c0.6-2,1.4-4.1,2.3-6.5l1.8-3.5c0.6-1.4,1.4-2.3,2.2-3.7
	C749.8,170.9,751.5,168.4,753.3,165.9z M791.5,207l1.2-1.2l-1.2,1l-3.3,2.5c-1.4,1.4-2.9,2.3-4.7,3.7s-3.3,2.5-5.5,3.9l-2.9,2
	c-0.8,0.6-1.8,1-2.7,1.6c-1,0.6-2,0.8-2.9,1.4c-0.8,0.6-1.8,0.6-2.5,0.8c-0.2,0.2-0.6,0.2-1.2,0.2c-0.2,0.2-0.6,0.2-1.2,0.2h-1.8
	c-0.6,0-1-0.2-1.2-0.2h-0.4h0.4l1.2,0.4c0.6,0,1.2,0.2,1.8,0h1.2c0.6,0,1,0,1.4-0.2c0.8-0.2,1.8-0.2,2.5-0.8c1-0.2,2-0.6,2.9-1.2
	l2.9-1.6l2.9-2c2.2-1.4,3.7-2.7,5.5-4.1c1.8-1.4,3.1-2.3,4.5-3.7C789.7,208.7,790.7,207.8,791.5,207z M771.9,206l-0.2,0.2L771.9,206
	l0.8-0.6c0.8-0.6,1.4-1.2,2.7-2c1-0.8,2.2-1.8,3.5-3.1c1.4-1,2.5-2.3,3.9-3.7s2.5-2.5,3.5-3.9c1.4-1.4,2.2-2.5,3.1-3.5
	c0.8-1,1.4-2.2,2-2.7l0.8-1l-1,1l-2.2,2.3c-1,1-1.8,2.2-3.1,3.5l-3.7,3.9l-3.7,3.7c-1.4,1.4-2.4,2.3-3.3,3.1c-1.4,1-2,1.8-2.5,2.3
	L771.9,206z M799.9,125.7l1-0.6c0,0.2,0,0.2-0.2,0.2s-0.6,0.2-0.8,0.2c-0.6,0.6-1.4,0.8-2.7,1.4c-1,0.6-2.2,1.2-3.5,2.2
	c-1.4,0.8-2.7,1.6-4.1,2.5l-3.7,2.9c-1.4,1-2.4,2-3.1,2.7l-2.2,2.2l-0.8,0.8c0.2-0.2,0.4-0.6,0.8-0.8l2.3-1.8l7.2-5.5l3.9-2.7
	c1.4-0.8,2.2-1.6,3.5-2.2C798.5,126.7,799.3,126.3,799.9,125.7z"/>
</svg>
