<?xml version="1.0" encoding="utf-8"?>
<!-- Generator: Adobe Illustrator 27.9.0, SVG Export Plug-In . SVG Version: 6.00 Build 0)  -->
<svg version="1.1" id="레이어_1" xmlns="http://www.w3.org/2000/svg" xmlns:xlink="http://www.w3.org/1999/xlink" x="0px"
	 y="0px" viewBox="0 0 640 640" style="enable-background:new 0 0 640 640;" xml:space="preserve">
<style type="text/css">
	.st0{fill:url(#SVGID_1_);}
	.st1{fill:url(#SVGID_00000024690001619290312860000004113275404651352744_);}
</style>
<linearGradient id="SVGID_1_" gradientUnits="userSpaceOnUse" x1="134.6908" y1="118.0106" x2="530.7515" y2="346.6764">
	<stop  offset="0.3324" style="stop-color:#B2A8EE"/>
	<stop  offset="1" style="stop-color:#7269FF"/>
</linearGradient>
<path class="st0" d="M332,214.1V449l195.8-97.2V116.2L332,214.1z M508.1,338l-156.7,77.8V227.9l156.7-78.3V338z M419.9,276
	L371,300.4v-58.7l48.9-24.4V276z M488.5,200.6l-49,24.5v-17.6l49-24.5V200.6z M488.5,241.8l-49,24.4v-17.6l49-24.4V241.8z
	 M488.5,283L371,341.5v-17.6l117.5-58.5V283z M488.5,324.2L371,382.6V365l117.5-58.4V324.2z M324.6,72l-58.6-28.6l58.5-30.5
	l59.3,28.6L324.6,72z M389.8,169l-59.3-29.3l59.3-30l60,29.3L389.8,169z M266.2,172.3l58.5-29.6l59.2,29.3l-59.2,29.6L266.2,172.3z
	 M260.4,169.4l-57.8-28.9l57.7-29.6l58.5,28.9L260.4,169.4z M196.9,137.6l-57.1-28.5l56.9-29.6l57.7,28.5L196.9,137.6z M260.3,105
	l-57.8-28.5l57.7-30L318.8,75L260.3,105z M395.8,106.7L456,76.2l60.8,29.3L455.9,136L395.8,106.7z M389.9,103.8l-59.3-28.9
	l59.3-30.5l60,28.9L389.9,103.8z M383.9,106.8l-59.2,30l-58.5-28.9l58.5-30L383.9,106.8z M192.8,223.2l-56.7-28.3v-71.4l56.7,28.3
	V223.2z M317.5,364.1l-56.7-28.3v-71.4l56.7,28.3V364.1z M260.8,414.3v-71.4l56.7,28.3v71.4L260.8,414.3z M255.1,411.4l-56.7-28.3
	v-71.4l56.7,28.3V411.4z M192.8,380.3l-56.7-28.3v-71.4l56.7,28.3V380.3z M192.8,301.7l-56.7-28.3V202l56.7,28.3V301.7z
	 M260.8,257.2v-71.4l56.7,28.3v71.4L260.8,257.2z M255.1,254.4L198.5,226v-71.4l56.7,28.3V254.4z M255.1,261.5v71.4l-56.7-28.3
	v-71.4L255.1,261.5z"/>
<linearGradient id="SVGID_00000014635249628619530560000006101769691858416554_" gradientUnits="userSpaceOnUse" x1="124.9706" y1="448.2298" x2="539.6544" y2="687.6476">
	<stop  offset="0" style="stop-color:#7269FF"/>
	<stop  offset="1" style="stop-color:#B2A8EE"/>
</linearGradient>
<path style="fill:url(#SVGID_00000014635249628619530560000006101769691858416554_);" d="M232.6,479.3c0,2.2-56.2,105.2-66.8,139.8
	c-1,4.3-13.9-8-13.9-9.6c7.1-26,7.2-26.4,49.5-105.8c-76.4,62.3-96,110.8-99.1,110.8c-3.1,0-11.8-9.6-11.8-11
	c9.6-17.6,47.2-96.7,47.2-102.8c-49.5,45.6-91.3,119.1-93.2,119.1c-2,0-11.6-8.8-11.6-12.3c40.1-69.3,115-145.9,125.1-145.9
	c5.1,0,10.2,11.6,10.2,13.7c0,1-6.7,15.9-13.3,30.4l-13.3,29c13.9-13.1,26.4-24.7,37.6-35.1c18.6-17.6,38.6-35.3,39.6-35.3
	c1,0,2,1.2,2.7,2.2c0.6,0.6,1,1.2,1.2,2l1.6-1.6c1-1,2-1.6,2.9-1.6C229.2,465.3,232.6,476.9,232.6,479.3z M60.2,569.3
	c0.6-1,0.8-1.8,1.4-2.3l0.6-1l-0.6,1l-1.8,2.2c-0.4,0.8-1.2,1.8-2.3,3.1c-0.6,1.2-1.6,2.5-2.5,3.9l-2.4,3.7l-2.2,3.3
	c-0.8,1-1,1.8-1.6,2.3c-0.2,0.4-0.4,0.8-0.4,1l0.6-0.8c0.6-0.6,1-1.4,1.6-2.3c0.8-1,1.6-1.8,2.3-3.1c0.8-1.4,1.8-2.3,2.5-3.7
	l2.5-3.9L60.2,569.3z M110.6,508.4l6.5-7.2c1-1,1.8-2,2.3-2.7l-0.8,0.6l-1.8,2c-1.8,1.6-4.1,3.9-6.9,6.9l-4.3,4.7l-4.9,5.3
	c-3.3,3.9-6.5,7.8-10.2,11.9l-9.8,12.1l-8.4,10.8c-2.3,3.1-4.3,5.7-5.7,7.8c-0.8,1-1,1.6-1.6,2.2c-0.2,0.4-0.4,0.6-0.4,0.8
	c0.6-0.8,1.4-1.8,2.3-2.7l6.1-7.4l8.6-10.6c3.1-3.9,6.3-8,10-11.9l10-11.9L110.6,508.4z M136.8,518.8c0.2-0.2,0.2-0.4,0.2-0.6l-1,2
	l-2.5,5.1c-1,2.2-2,4.5-3.3,7.1c-1.4,2.9-2.2,5.5-3.5,8.4c-1.4,2.9-2.5,5.7-3.5,8.2c-1.4,2.9-2.2,5.3-2.9,7.4l-2.2,5.1l-0.6,1.4
	c-0.2,0.2-0.2,0.4-0.2,0.6l1-2c0.6-1.4,1.6-2.7,2.5-4.9c1.4-2.2,2.2-4.5,3.5-7l3.7-8.2c1.4-2.9,2.3-5.5,3.3-8.4
	c1.4-2.9,2.2-5.3,2.9-7.4c1-2.2,1.4-3.7,2-5.1C136.4,519.6,136.6,519,136.8,518.8z M180.9,548.2l0.4-0.8l-0.4,0.6
	c-0.2,0.6-0.4,1-1,1.8c-0.8,1.8-2.2,3.7-3.5,6.7l-4.7,9.6l-5.1,11c-0.8,1.8-1.6,3.5-2.4,5.7l-2.3,5.5c-1.4,3.7-2.3,6.9-3.7,9.8
	L157,602c-0.6,1.4-0.8,2.2-1,3.1c-0.6,1-0.4,1.4-0.6,2c-0.2,0.2-0.2,0.6-0.2,0.8c0-0.2,0-0.6,0.2-0.8c0.2-0.6,0.2-1,0.8-2l1.2-2.9
	l1.6-3.9c1.4-2.9,2.7-6.1,4.1-9.8l4.9-11l9.2-20.8c1.4-2.9,2.3-5.1,2.9-6.9C180.7,549.2,180.7,548.8,180.9,548.2z M175.2,566.2
	c0.6-1.4,0.6-2.3,1.2-3.1l0.6-1.4l-0.6,1.2c-0.6,0.8-1,2-1.6,3.3l-2.2,4.5l-2.3,5.1c-0.8,1.8-1.6,3.5-2.2,5.3l-2,4.5
	c-0.6,1.4-0.6,2.5-1.2,3.3l-0.6,1.2l0.6-1.2c0.6-0.8,1-1.8,1.6-3.1l2.2-4.5l2.3-5.1c0.8-1.8,1.4-3.7,2.2-5.3L175.2,566.2z
	 M184.6,499.6l4.3-4.3c1.4-1.4,2.3-2.3,2.9-3.1l1.2-1.2c-0.2,0-0.2,0-0.4,0.2l-1,0.8l-3.3,2.7c-1.4,1.4-2.9,2.5-4.7,3.9l-5.1,4.7
	l-5.1,4.9l-4.5,4.3l-2.9,3.1l-0.8,1l-0.2,0.2l0.2-0.2l1-0.8c0.8-0.8,2-1.4,3.3-2.7c1.4-1.4,3.1-2.5,4.7-4.1c1.8-1.4,3.5-2.9,5.3-4.5
	L184.6,499.6z M199.5,488.5l1.6-1.8l0.6-0.6l-0.8,0.6l-1.8,1.4c-1.4,1.4-3.1,2.9-5.3,4.7l-5.1,4.9c-0.6,0.8-1,1-1.6,1.6l-0.6,0.6
	c0.2,0,0.4-0.2,0.6-0.4c0.6-0.6,1.2-0.8,2-1.6c1.4-1.4,3.1-2.9,5.3-4.5L199.5,488.5z M317.6,565.6c0,7.4-28,54.2-46.6,54.2
	c-6.9,0-18.2-13.1-18.2-18.6v-1.6c-10.8,10.8-23.1,20.2-30.7,20.2c-12.3,0-27.4-19.6-27.4-29.8c0-31.5,50.7-79.5,72.1-79.5
	c16.8,0,21.3,27.4,16.6,27.4c-5.3,0-2.9-10.8-11.9-10.8c-18.6,0-63.6,46.2-63.6,72.3c0,3.5,1.6,5.3,4.5,5.3
	c16.6,0,45.4-40.3,53.7-50.9c1-1.8,1.8-2.5,2.3-2.5c2.2,0,13.1,12.9,13.1,15.5c0,2.3-16.8,34.1-12.5,34.1c15.3,0,35.8-43.3,40-47.4
	C310.3,551.9,317.6,561.3,317.6,565.6z M210.2,559.2c2.2-2.5,3.9-5.3,6.1-7.8c2.2-2.5,4.3-5.1,6.7-7.6c4.5-4.9,9.6-9.6,14.5-13.7
	c2.3-2.2,4.7-4.1,7-5.7c2.3-1.8,4.7-3.3,6.9-4.7c2.3-1.6,4.3-2.7,6.1-3.5c0.8-0.6,1.8-0.6,2.5-1.2c0.6-0.2,1.4-0.6,2.3-0.8l2-0.6
	c0.4-0.2,0.8-0.2,1.4-0.2s0.6-0.2,0.8-0.2h0.4h-1.2c-0.6,0-0.8,0.2-1.4,0.2l-2,0.4c-0.8,0.2-1.6,0.6-2.5,0.8
	c-0.8,0.6-1.8,0.6-2.5,1.2c-2.2,0.8-4.1,1.8-6.3,3.1c-4.5,2.5-9.2,6.1-14.5,10.2c-4.9,4.1-10,8.4-14.7,13.7
	c-2.2,2.5-4.5,5.1-6.7,7.8c-2.2,2.5-4.1,5.3-5.9,7.8c-1.8,2.5-3.5,5.3-4.9,7.8l-2,3.9l-1.8,3.7c-1,2.4-1.6,4.5-2.2,6.7
	c-0.6,1-0.6,2-0.8,2.7l-0.4,2.5c-0.2,1.4-0.2,2.5-0.2,3.3v1.4v-0.4c0-0.4,0-0.8,0.2-1v-1.4l0.4-2c0-0.8,0.2-1.6,0.6-2.3
	c0.2-1.4,0.6-2.4,0.8-2.9c0.6-2,1.4-4.1,2.4-6.5l1.8-3.5c0.6-1.4,1.4-2.3,2.2-3.7C206.7,564.2,208.5,561.7,210.2,559.2z
	 M248.4,600.3l1.2-1.2l-1.2,1l-3.3,2.5c-1.4,1.4-2.9,2.3-4.7,3.7c-1.8,1.4-3.3,2.5-5.5,3.9l-2.9,2c-0.8,0.6-1.8,1-2.7,1.6
	c-1,0.6-2,0.8-2.9,1.4c-0.8,0.6-1.8,0.6-2.5,0.8c-0.2,0.2-0.6,0.2-1.2,0.2c-0.2,0.2-0.6,0.2-1.2,0.2h-1.8c-0.6,0-1-0.2-1.2-0.2h-0.4
	h0.4l1.2,0.4c0.6,0,1.2,0.2,1.8,0h1.2c0.6,0,1,0,1.4-0.2c0.8-0.2,1.8-0.2,2.5-0.8c1-0.2,2-0.6,2.9-1.2l2.9-1.6l2.9-2
	c2.2-1.4,3.7-2.7,5.5-4.1c1.8-1.4,3.1-2.3,4.5-3.7C246.7,602,247.6,601.1,248.4,600.3z M228.8,599.3l-0.2,0.2L228.8,599.3l0.8-0.6
	c0.8-0.6,1.4-1.2,2.7-2c1-0.8,2.2-1.8,3.5-3.1c1.4-1,2.5-2.3,3.9-3.7c1.4-1.4,2.5-2.5,3.5-3.9c1.4-1.4,2.2-2.5,3.1-3.5
	c0.8-1,1.4-2.2,2-2.7l0.8-1l-1,1l-2.2,2.3c-1,1-1.8,2.2-3.1,3.5l-3.7,3.9l-3.7,3.7c-1.4,1.4-2.4,2.3-3.3,3.1c-1.4,1-2,1.8-2.5,2.3
	L228.8,599.3z M256.8,519l1-0.6c0,0.2,0,0.2-0.2,0.2c-0.2,0-0.6,0.2-0.8,0.2c-0.6,0.6-1.4,0.8-2.7,1.4c-1,0.6-2.2,1.2-3.5,2.2
	c-1.4,0.8-2.7,1.6-4.1,2.5l-3.7,2.9c-1.4,1-2.4,2-3.1,2.7l-2.2,2.2l-0.8,0.8c0.2-0.2,0.4-0.6,0.8-0.8l2.3-1.8l7.2-5.5l3.9-2.7
	c1.4-0.8,2.2-1.6,3.5-2.2C255.5,520,256.3,519.6,256.8,519z M406.9,565c-10,19.8-33.9,54.8-54.4,54.8c-7,0-18.6-12.3-18.6-18.4
	c0-12.5,16.5-38,25.9-60.1c-41.1,41.1-59.5,78.3-62.1,78.3c-3.1,0-11.6-7.4-11.6-14.3c0-6.7,41.1-89.1,41.1-96.5
	c0-0.2,0-0.6,0.2-0.8c0.2-0.6,0.8-1,1.6-1c4.1,0,12.1,5.5,12.1,11.9c0,3.3-7,20.8-14.3,37.8c16.1-19.2,36.6-42.7,40.7-45.2
	c0.2,0,0.4-0.2,0.6-0.2c0.2,0,0.2,0,0.4,0.2c0.4,0,0.6,0,0.8,0.2c3.1,1.6,11,7.8,11,18.2c0,11.8-28.8,58.6-28.8,70.5
	c12.5,0,30.7-22.9,43.7-47.2C397.3,549.8,408.4,561.3,406.9,565z M321.7,556.8c1.4-2.9,2.2-5.5,3.5-8l2.7-7l2-4.9l0.4-1.4
	c0-0.2,0-0.4,0.2-0.6l-9.4,21.5l-6.5,14.9l-2.2,4.9c-0.4,0.6-0.6,1.2-0.8,1.8c0.2-0.6,0.6-1.2,1-1.8l2.3-4.7c1-2.2,1.8-4.3,3.1-6.9
	C319.5,562.1,320.3,559.4,321.7,556.8z M324.8,554.6c0-0.2,0-0.2,0.2-0.4c0.2-0.2,0-0.6,0.6-1.2l2.2-4.3c1-1.8,2-3.9,2.9-6.1
	c1-2.3,2.2-4.7,3.1-7.2c1-2.3,1.8-4.9,2.5-7.2l2-6.5c0.4-2,0.6-3.5,0.6-4.9v-0.8c0-0.2,0-0.4-0.2-0.6c-0.2-0.2-0.2-0.2-0.2-0.4
	c0,0,0,0.2,0.2,0.4v0.6v0.8l-0.4,2c-0.6,0.8-0.6,1.8-0.8,2.5c-0.6,2.2-1.6,4.1-2.3,6.5l-2.9,7c-1,2.5-2,4.9-2.7,7.2l-2.5,6.3
	c-0.6,2.2-1,3.5-1.6,4.5L324.8,554.6z M343.8,579.5c1.4-2.5,2.2-4.9,3.5-7.2c1-2.5,2-4.7,2.9-6.3c0.8-2.2,1.2-3.5,1.8-4.5l0.6-1.4
	c0.2-0.2,0.2-0.2,0.2-0.4c0,0.2,0,0.2-0.2,0.4c-0.2,0.2-0.6,0.6-0.8,1.2l-2.4,4.3c-1,1.8-2,3.9-3.3,6.1c-1.4,2.3-2.3,4.7-3.7,7.2
	l-3.1,7.2c-0.6,1.4-0.8,2.3-1.4,3.3c-0.6,1.4-0.8,2.3-1,3.3c-0.4,1-0.6,2-0.6,2.7c-0.2,0.8-0.4,1.4-0.4,2.2v1.4v0.4
	c0,0,0-0.2,0.2-0.4c0-0.6,0-1,0.2-1.4c0.2-1.4,0.8-2.9,1.4-4.7c0.8-2.2,1.8-4.1,2.7-6.3C341.8,584.4,342.4,581.9,343.8,579.5z
	 M363.2,615.2l0.8-0.6l-0.8,0.4l-2.2,0.8c-1.8,0.8-3.7,1.4-6.3,1.6H353c-0.6,0-1.2-0.2-1.8-0.2c-1-0.2-2-0.4-2.9-1l-1.2-0.6
	c-0.2,0-0.6-0.2-0.8-0.4c-0.6,0-0.4-0.2-0.6-0.2c-0.2,0-0.2,0-0.2-0.2l0.6,0.6l0.8,0.6l1.2,0.6c0.8,0.6,1.6,1,2.9,1.2l1.8,0.4h2
	c1.4,0,2.2-0.2,3.5-0.8c1.4-0.2,2.2-0.6,2.9-1.2C362,615.6,362.6,615.8,363.2,615.2z M355.4,557.6c-1,2.2-2,3.7-2.7,5.9
	c-1,1.8-1.6,3.5-2.3,5.1c-0.6,1.6-1.2,2.7-1.4,3.7c-0.2,0.6-0.4,1-0.4,1.4l0.6-1.4c0.6-0.8,0.8-2,1.6-3.5c1.6-2.9,3.1-6.9,5.3-10.8
	l2.7-5.7l2.4-5.1c0.6-1.4,1-2.7,1.6-3.7l0.6-1.4c-0.2,0.4-0.6,0.8-0.8,1.4c-0.6,0.8-1,2.2-1.8,3.5
	C359.3,550.1,357.5,553.7,355.4,557.6z M509.7,567c0,4.7-31.7,52.9-42.7,52.9c-10.8,0-24.1-16.1-25.1-27c-11.6,14.1-25.1,27-35.1,27
	c-12.3,0-27.4-19.4-27.4-29.6c0-31.7,50.7-79.7,72.1-79.7c5.5,0,9.6,2.9,12.7,6.9c13.5-35.8,28.2-70.3,28.2-71.9
	c0-7.2,15.5,7.2,15.5,12.5c0,3.5-66.4,145.9-48.6,145.9c9.2,0,39-48.2,41.3-50.5C502.4,551.7,509.7,562.1,509.7,567z M389.2,566.8
	c0.8-1.6,1.6-2.7,2.2-4.1c0.6-1,1-2,1.6-2.7l0.6-1.2c-0.2,0-0.2,0-0.2,0.2l-0.4,0.8c-0.6,0.6-1.2,1.4-2,2.7l-2.3,3.9l-2.3,4.9
	c-0.8,1.6-1.4,3.3-2,4.9c-0.6,1.8-0.8,3.1-1.4,4.5c-0.6,1.4-0.4,2.5-0.6,3.3c-0.2,0.6-0.2,1-0.2,1.2c0-0.2,0-0.6,0.2-1.2
	c0.2-0.8,0.4-1.8,1-3.1c0.8-2.5,2.2-6.1,3.5-9.2L389.2,566.8z M397.1,605c28.2,0,55.2-61.3,62.9-76.8c-1-0.6-2.2-0.8-3.7-0.8
	c-18.6,0-63.6,46.2-63.6,72.3C392.6,603.2,394.1,605,397.1,605z M420.4,595.8c0,0.2,0,0.2-0.2,0.2l-0.8,0.4l-2.3,2
	c-1,0.8-2.2,1.6-3.5,2.3l-4.3,2.7c-2.9,1.6-5.9,2.7-8.6,3.3c-1.4,0.2-2.3,0.4-2.9,0.4h-1.2h0.2c0.2,0,0.4,0.2,1,0.2
	c0.6,0,1.6,0,2.9-0.2l2.2-0.4l2.2-0.6c0.8-0.6,1.6-0.4,2.3-1l2.4-1.2c3.1-1.8,5.7-3.7,7.6-5.5l2.3-2L420.4,595.8z M411,537.4l-1,1
	C410.2,538.2,410.4,537.8,411,537.4l2.9-2.3c1.4-1,2.5-2,3.9-3.3c1.4-1.4,2.9-2.5,4.7-3.9c1.6-1.4,3.1-2.3,4.7-3.7
	c1.4-1.4,2.7-2.2,4.1-3.1c1.4-0.8,2.2-1.6,2.9-2.2l1.2-0.8l-1.2,0.6l-3.1,2c-1.4,1-2.9,1.8-4.3,3.1c-1.6,1-3.3,2.2-4.9,3.5
	s-3.1,2.5-4.5,3.9c-1.6,1.4-2.5,2.5-3.9,3.5L411,537.4z M437.2,521c-3.3,2.2-6.5,4.3-8.8,6.5l-2.5,2.5c-0.6,0.6-0.4,0.6-0.6,0.8
	l-0.2,0.2l1-0.8l2.9-2c1.4-1,2.7-1.6,4.1-2.9l4.9-2.9c1-0.8,2-1.4,2.5-1.6c0.8-0.6,1.6-0.8,2.3-1.4c0.8-0.6,1.8-0.6,2.4-1.2l2.2-0.8
	c0.8-0.6,1.4-0.4,2-0.6c0.8-0.2,1.4-0.4,1.6-0.4c0.6,0,0.6-0.2,0.8-0.2h0.4h-0.4c-0.2,0-0.4-0.2-1-0.2s-1,0-1.4,0.2
	c-0.8,0-1.4,0.2-2.2,0.4c-0.8,0.2-1.6,0-2.4,0.6c-0.8,0.6-1.6,0.4-2.5,1c-1,0.6-2,1-2.5,1.2L437.2,521z M451.7,552.1
	c0.8-2.9,1.8-5.5,2.7-8.4c-1,2.2-2,4.3-3.3,6.5l-7.4,12.9c-2.3,4.1-4.5,7.8-6.7,11.2l-4.9,7.8l-1.8,2.9l0.6-0.8l1.4-2
	c1.4-1.8,3.1-4.5,5.3-7.6c1.4-1.6,2.2-3.3,3.5-5.1c1.4-1.8,2.3-3.7,3.7-5.9L451.7,552.1z M462.3,527.2l-1.4,3.3L462.3,527.2
	c0.8-2.2,2.2-5.3,3.7-9c1.6-3.7,3.1-8.2,5.3-12.9c1.8-4.7,3.7-9.4,5.9-14.7l5.9-14.7l4.9-12.9l3.5-9.2c0.6-1.4,1-2.4,1.2-3.3
	l-1.4,3.3l-3.7,9c-1.6,3.7-3.1,8.2-5.3,12.9c-1.8,4.7-3.7,9.6-5.9,14.7c-2.2,4.9-3.9,10-5.7,14.7c-2.2,4.7-3.5,9.2-5.1,12.9
	L462.3,527.2z M489.3,463.4c0.6-2.2,1.2-3.7,1.8-5.1l0.6-2l-0.8,2l-2,4.9l-2.7,7c-1,2.9-1.8,5.3-3.1,8.2c-2.2,5.5-4.1,11.2-5.7,15.3
	l-2,4.9l-0.6,2c0.2-0.6,0.4-1.2,0.8-1.8c0.6-1.4,1.4-2.7,2.2-4.9l2.9-7c1-2.5,1.8-5.3,3.1-8.2l2.9-8.2L489.3,463.4z M608,565.6
	c0,7.4-28,54.2-46.6,54.2c-6.9,0-18.2-13.1-18.2-18.6v-1.6c-10.8,10.8-23.1,20.2-30.7,20.2c-12.3,0-27.4-19.6-27.4-29.8
	c0-31.5,50.7-79.5,72.1-79.5c16.8,0,21.3,27.4,16.6,27.4c-5.3,0-2.9-10.8-11.9-10.8c-18.6,0-63.6,46.2-63.6,72.3
	c0,3.5,1.6,5.3,4.5,5.3c16.6,0,45.4-40.3,53.7-50.9c1-1.8,1.8-2.5,2.3-2.5c2.2,0,13.1,12.9,13.1,15.5c0,2.3-16.8,34.1-12.5,34.1
	c15.3,0,35.8-43.3,40-47.4C600.8,551.9,608,561.3,608,565.6z M500.7,559.2c2.2-2.5,3.9-5.3,6.1-7.8c2.2-2.5,4.3-5.1,6.7-7.6
	c4.5-4.9,9.6-9.6,14.5-13.7c2.3-2.2,4.7-4.1,7-5.7c2.3-1.8,4.7-3.3,6.9-4.7c2.3-1.6,4.3-2.7,6.1-3.5c0.8-0.6,1.8-0.6,2.5-1.2
	c0.6-0.2,1.4-0.6,2.3-0.8l2-0.6c0.4-0.2,0.8-0.2,1.4-0.2c0.6,0,0.6-0.2,0.8-0.2h0.4h-1.2c-0.6,0-0.8,0.2-1.4,0.2l-2,0.4
	c-0.8,0.2-1.6,0.6-2.5,0.8c-0.8,0.6-1.8,0.6-2.5,1.2c-2.2,0.8-4.1,1.8-6.3,3.1c-4.5,2.5-9.2,6.1-14.5,10.2
	c-4.9,4.1-10,8.4-14.7,13.7c-2.2,2.5-4.5,5.1-6.7,7.8c-2.2,2.5-4.1,5.3-5.9,7.8c-1.8,2.5-3.5,5.3-4.9,7.8l-2,3.9l-1.8,3.7
	c-1,2.4-1.6,4.5-2.2,6.7c-0.6,1-0.6,2-0.8,2.7l-0.4,2.5c-0.2,1.4-0.2,2.5-0.2,3.3v1.4v-0.4c0-0.4,0-0.8,0.2-1v-1.4l0.4-2
	c0-0.8,0.2-1.6,0.6-2.3c0.2-1.4,0.6-2.4,0.8-2.9c0.6-2,1.4-4.1,2.3-6.5l1.8-3.5c0.6-1.4,1.4-2.3,2.2-3.7
	C497.2,564.2,498.9,561.7,500.7,559.2z M538.9,600.3l1.2-1.2l-1.2,1l-3.3,2.5c-1.4,1.4-2.9,2.3-4.7,3.7c-1.8,1.4-3.3,2.5-5.5,3.9
	l-2.9,2c-0.8,0.6-1.8,1-2.7,1.6c-1,0.6-2,0.8-2.9,1.4c-0.8,0.6-1.8,0.6-2.5,0.8c-0.2,0.2-0.6,0.2-1.2,0.2c-0.2,0.2-0.6,0.2-1.2,0.2
	h-1.8c-0.6,0-1-0.2-1.2-0.2h-0.4h0.4l1.2,0.4c0.6,0,1.2,0.2,1.8,0h1.2c0.6,0,1,0,1.4-0.2c0.8-0.2,1.8-0.2,2.5-0.8
	c1-0.2,2-0.6,2.9-1.2l2.9-1.6l2.9-2c2.2-1.4,3.7-2.7,5.5-4.1c1.8-1.4,3.1-2.3,4.5-3.7C537.1,602,538.1,601.1,538.9,600.3z
	 M519.3,599.3l-0.2,0.2L519.3,599.3l0.8-0.6c0.8-0.6,1.4-1.2,2.7-2c1-0.8,2.2-1.8,3.5-3.1c1.4-1,2.5-2.3,3.9-3.7s2.5-2.5,3.5-3.9
	c1.4-1.4,2.2-2.5,3.1-3.5c0.8-1,1.4-2.2,2-2.7l0.8-1l-1,1l-2.2,2.3c-1,1-1.8,2.2-3.1,3.5l-3.7,3.9l-3.7,3.7
	c-1.4,1.4-2.4,2.3-3.3,3.1c-1.4,1-2,1.8-2.5,2.3L519.3,599.3z M547.3,519l1-0.6c0,0.2,0,0.2-0.2,0.2c-0.2,0-0.6,0.2-0.8,0.2
	c-0.6,0.6-1.4,0.8-2.7,1.4c-1,0.6-2.2,1.2-3.5,2.2c-1.4,0.8-2.7,1.6-4.1,2.5l-3.7,2.9c-1.4,1-2.4,2-3.1,2.7l-2.2,2.2l-0.8,0.8
	c0.2-0.2,0.4-0.6,0.8-0.8l2.3-1.8l7.2-5.5l3.9-2.7c1.4-0.8,2.2-1.6,3.5-2.2C545.9,520,546.7,519.6,547.3,519z"/>
</svg>
