<svg xmlns="http://www.w3.org/2000/svg" height="36" viewBox="0 -960 960 960" width="36"><path d="M180.001-204.616v-50.255h72.308v-310.104q0-81.102 49.474-144.179 49.474-63.076 128.218-78.897v-21.948q0-20.833 14.57-35.416 14.57-14.584 35.384-14.584t35.429 14.584q14.615 14.583 14.615 35.416v21.948q78.744 15.821 128.218 78.897 49.474 63.077 49.474 144.179v310.104h72.308v50.255H180.001ZM479.932-92.309q-29.855 0-51.047-21.24-21.192-21.24-21.192-51.067h144.614q0 29.923-21.26 51.115-21.26 21.192-51.115 21.192Z"/></svg>