<?xml version="1.0" encoding="utf-8"?>
<!-- Generator: Adobe Illustrator 27.9.0, SVG Export Plug-In . SVG Version: 6.00 Build 0)  -->
<svg version="1.1" id="레이어_1" xmlns="http://www.w3.org/2000/svg" xmlns:xlink="http://www.w3.org/1999/xlink" x="0px"
	 y="0px" viewBox="0 0 640 640" style="enable-background:new 0 0 640 640;" xml:space="preserve">
<style type="text/css">
	.st0{fill:url(#SVGID_1_);}
</style>
<linearGradient id="SVGID_1_" gradientUnits="userSpaceOnUse" x1="40.776" y1="157.6673" x2="601.2041" y2="481.2306">
	<stop  offset="0.3324" style="stop-color:#B2A8EE"/>
	<stop  offset="1" style="stop-color:#7269FF"/>
</linearGradient>
<path class="st0" d="M319.9,293.7V626L597,488.5V155.2L319.9,293.7z M569.2,469L347.6,579V313.1l221.7-110.7V469z M444.4,381.2
	l-69.2,34.5v-83.1l69.2-34.5V381.2z M541.4,274.6l-69.3,34.6v-25l69.3-34.6V274.6z M541.4,332.9l-69.3,34.6v-25l69.3-34.6V332.9z
	 M541.4,391.2l-166.2,82.7v-24.9l166.2-82.8V391.2z M541.4,449.5l-166.2,82.6v-24.9l166.2-82.7V449.5z M309.6,92.5l-82.9-40.4
	L309.5,9l83.9,40.4L309.6,92.5z M401.8,229.8l-83.9-41.4l83.9-42.5l84.9,41.4L401.8,229.8z M226.9,234.5l82.7-41.9l83.8,41.4
	l-83.7,41.9L226.9,234.5z M218.7,230.4l-81.7-40.9l81.6-41.9l82.7,40.9L218.7,230.4z M128.8,185.4L48,145.1l80.6-41.9l81.7,40.4
	L128.8,185.4z M218.5,139.3l-81.8-40.4l81.7-42.5l82.8,40.4L218.5,139.3z M410.3,141.6l85.1-43.1l86.1,41.5l-86.1,43.1L410.3,141.6z
	 M401.8,137.5l-83.9-40.9l84-43.1l85,40.9L401.8,137.5z M393.4,141.8l-83.8,42.5l-82.8-40.9l82.8-42.5L393.4,141.8z M123,306.5
	l-80.2-40.1v-101l80.2,40.1V306.5z M299.4,505.8l-80.2-40.1v-101l80.2,40.1V505.8z M219.2,576.9v-101l80.2,40.1v101L219.2,576.9z
	 M211.2,572.9L131,532.8v-101l80.2,40.1V572.9z M123,528.8l-80.2-40.1v-101l80.2,40.1V528.8z M123,417.6l-80.2-40.1v-101l80.2,40.1
	V417.6z M219.2,354.6v-101l80.2,40.1v101L219.2,354.6z M211.2,350.6L131,310.5v-101l80.2,40.1V350.6z M211.2,360.7v101L131,421.7
	v-101L211.2,360.7z"/>
</svg>
