<svg width="24" height="24" viewBox="0 0 24 24" fill="none" xmlns="http://www.w3.org/2000/svg">
<g id="fluent:chat-add-32-regular">
<path id="Vector" d="M12 3C7.02975 3 3 7.02975 3 12C3 13.6237 3.429 15.1447 4.17975 16.4587C4.22937 16.5455 4.26117 16.6412 4.27328 16.7404C4.28538 16.8396 4.27756 16.9401 4.25025 17.0363L3.171 20.8305L6.96675 19.7505C7.06285 19.7232 7.16344 19.7154 7.26261 19.7275C7.36178 19.7396 7.45754 19.7714 7.54425 19.821C8.7928 20.5343 10.1949 20.9362 11.6317 20.9925C11.999 21.5426 12.4447 22.0361 12.9548 22.4573C12.6397 22.4858 12.3217 22.5 12 22.5C10.224 22.5 8.5485 22.0583 7.08 21.2782L2.934 22.4573C2.74131 22.5119 2.53753 22.5141 2.34371 22.4636C2.14989 22.4131 1.97306 22.3118 1.83148 22.1702C1.6899 22.0285 1.5887 21.8516 1.53834 21.6578C1.48798 21.4639 1.49028 21.2602 1.545 21.0675L2.724 16.9222C1.91824 15.4068 1.49788 13.7163 1.5 12C1.5 6.201 6.20025 1.5 12 1.5C17.7982 1.5 22.5 6.201 22.5 12C22.5 12.3225 22.485 12.6405 22.4565 12.9548C22.0353 12.4447 21.5418 11.999 20.9917 11.6318C20.7997 6.83175 16.8472 3 12 3ZM17.25 22.875C18.7418 22.875 20.1726 22.2824 21.2275 21.2275C22.2824 20.1726 22.875 18.7418 22.875 17.25C22.875 15.7582 22.2824 14.3274 21.2275 13.2725C20.1726 12.2176 18.7418 11.625 17.25 11.625C15.7582 11.625 14.3274 12.2176 13.2725 13.2725C12.2176 14.3274 11.625 15.7582 11.625 17.25C11.625 18.7418 12.2176 20.1726 13.2725 21.2275C14.3274 22.2824 15.7582 22.875 17.25 22.875ZM18 13.6875V16.5H20.8125C20.9617 16.5 21.1048 16.5593 21.2102 16.6648C21.3157 16.7702 21.375 16.9133 21.375 17.0625C21.375 17.2117 21.3157 17.3548 21.2102 17.4602C21.1048 17.5657 20.9617 17.625 20.8125 17.625H18V20.4375C18 20.5867 17.9407 20.7298 17.8352 20.8352C17.7298 20.9407 17.5867 21 17.4375 21C17.2883 21 17.1452 20.9407 17.0398 20.8352C16.9343 20.7298 16.875 20.5867 16.875 20.4375V17.625H14.0625C13.9133 17.625 13.7702 17.5657 13.6648 17.4602C13.5593 17.3548 13.5 17.2117 13.5 17.0625C13.5 16.9133 13.5593 16.7702 13.6648 16.6648C13.7702 16.5593 13.9133 16.5 14.0625 16.5H16.875V13.6875C16.875 13.5383 16.9343 13.3952 17.0398 13.2898C17.1452 13.1843 17.2883 13.125 17.4375 13.125C17.5867 13.125 17.7298 13.1843 17.8352 13.2898C17.9407 13.3952 18 13.5383 18 13.6875Z" fill="#111111"/>
</g>
</svg>
