<svg width="24" height="24" viewBox="0 0 24 24" fill="none" xmlns="http://www.w3.org/2000/svg">
<g id="fluent:emoji-add-16-regular" clip-path="url(#clip0_260_150)">
<path id="Vector" d="M21 10.4999C20.9999 8.70368 20.4623 6.94857 19.4564 5.46041C18.4505 3.97225 17.0223 2.81913 15.3555 2.14942C13.6888 1.47972 11.8598 1.32406 10.1039 1.70249C8.34798 2.08092 6.74546 2.97612 5.50254 4.2729C4.25962 5.56967 3.43317 7.20871 3.12953 8.9791C2.82589 10.7495 3.05894 12.5702 3.79871 14.2071C4.53847 15.8439 5.75111 17.2219 7.28058 18.1638C8.81005 19.1058 10.5864 19.5685 12.381 19.4924C12.2109 19.0095 12.0967 18.5088 12.0405 17.9999H12C10.5166 17.9999 9.0666 17.5601 7.83323 16.7359C6.59986 15.9118 5.63857 14.7405 5.07091 13.37C4.50325 11.9996 4.35473 10.4916 4.64412 9.03675C4.93351 7.58189 5.64781 6.24552 6.6967 5.19662C7.7456 4.14773 9.08197 3.43342 10.5368 3.14403C11.9917 2.85464 13.4997 3.00317 14.8701 3.57083C16.2406 4.13848 17.4119 5.09978 18.236 6.33315C19.0601 7.56652 19.5 9.01656 19.5 10.4999V10.5404C20.0175 10.5989 20.517 10.7144 20.9925 10.8809C20.997 10.7549 21 10.6274 21 10.4999ZM12.168 15.7469C12.294 15.1949 12.486 14.6684 12.738 14.1779C12.0974 14.3076 11.434 14.2671 10.814 14.0605C10.1939 13.8539 9.63879 13.4884 9.20401 13.0004C9.06934 12.8607 8.88578 12.7787 8.6919 12.7715C8.49801 12.7643 8.30888 12.8325 8.16423 12.9618C8.01958 13.0911 7.93067 13.2715 7.91618 13.465C7.90169 13.6584 7.96274 13.85 8.0865 13.9994C8.59723 14.5716 9.22734 15.0246 9.93232 15.3265C10.6373 15.6285 11.4015 15.772 12.168 15.7469ZM10.5 8.99992C10.5 9.29829 10.3815 9.58444 10.1705 9.79542C9.95952 10.0064 9.67337 10.1249 9.37501 10.1249C9.07664 10.1249 8.79049 10.0064 8.57951 9.79542C8.36853 9.58444 8.25001 9.29829 8.25001 8.99992C8.25001 8.70155 8.36853 8.41541 8.57951 8.20443C8.79049 7.99345 9.07664 7.87492 9.37501 7.87492C9.67337 7.87492 9.95952 7.99345 10.1705 8.20443C10.3815 8.41541 10.5 8.70155 10.5 8.99992ZM14.625 10.1249C14.9234 10.1249 15.2095 10.0064 15.4205 9.79542C15.6315 9.58444 15.75 9.29829 15.75 8.99992C15.75 8.70155 15.6315 8.41541 15.4205 8.20443C15.2095 7.99345 14.9234 7.87492 14.625 7.87492C14.3266 7.87492 14.0405 7.99345 13.8295 8.20443C13.6185 8.41541 13.5 8.70155 13.5 8.99992C13.5 9.29829 13.6185 9.58444 13.8295 9.79542C14.0405 10.0064 14.3266 10.1249 14.625 10.1249ZM24 17.2499C24 18.6423 23.4469 19.9777 22.4623 20.9622C21.4777 21.9468 20.1424 22.4999 18.75 22.4999C17.3576 22.4999 16.0223 21.9468 15.0377 20.9622C14.0531 19.9777 13.5 18.6423 13.5 17.2499C13.5 15.8575 14.0531 14.5222 15.0377 13.5376C16.0223 12.553 17.3576 11.9999 18.75 11.9999C20.1424 11.9999 21.4777 12.553 22.4623 13.5376C23.4469 14.5222 24 15.8575 24 17.2499ZM19.5 14.2499C19.5 14.051 19.421 13.8602 19.2803 13.7196C19.1397 13.5789 18.9489 13.4999 18.75 13.4999C18.5511 13.4999 18.3603 13.5789 18.2197 13.7196C18.079 13.8602 18 14.051 18 14.2499V16.4999H15.75C15.5511 16.4999 15.3603 16.5789 15.2197 16.7196C15.079 16.8602 15 17.051 15 17.2499C15 17.4488 15.079 17.6396 15.2197 17.7803C15.3603 17.9209 15.5511 17.9999 15.75 17.9999H18V20.2499C18 20.4488 18.079 20.6396 18.2197 20.7803C18.3603 20.9209 18.5511 20.9999 18.75 20.9999C18.9489 20.9999 19.1397 20.9209 19.2803 20.7803C19.421 20.6396 19.5 20.4488 19.5 20.2499V17.9999H21.75C21.9489 17.9999 22.1397 17.9209 22.2803 17.7803C22.421 17.6396 22.5 17.4488 22.5 17.2499C22.5 17.051 22.421 16.8602 22.2803 16.7196C22.1397 16.5789 21.9489 16.4999 21.75 16.4999H19.5V14.2499Z" fill="#222222"/>
</g>
<defs>
<clipPath id="clip0_260_150">
<rect width="24" height="24" fill="white"/>
</clipPath>
</defs>
</svg>
