<svg xmlns="http://www.w3.org/2000/svg" width="22" height="22" viewBox="0 0 22 22" fill="none">
  <path d="M18.8571 9.42823C18.857 7.54641 18.2938 5.70767 17.24 4.1486C16.1862 2.58953 14.69 1.38147 12.9439 0.679854C11.1978 -0.0217617 9.28172 -0.184831 7.44218 0.211629C5.60264 0.608089 3.92381 1.54594 2.62171 2.90451C1.31961 4.26307 0.4538 5.9802 0.135697 7.83494C-0.182405 9.68969 0.0617478 11.5972 0.836741 13.312C1.61173 15.0268 2.88211 16.4705 4.48441 17.4573C6.08671 18.4441 7.94763 18.9289 9.82772 18.8492C9.64954 18.3433 9.52985 17.8187 9.471 17.2856H9.42858C7.87458 17.2856 6.35548 16.8248 5.06338 15.9614C3.77128 15.098 2.76421 13.8709 2.16952 12.4351C1.57484 10.9994 1.41924 9.41952 1.72241 7.89534C2.02558 6.37116 2.7739 4.97112 3.87274 3.87225C4.97158 2.77337 6.37159 2.02503 7.89572 1.72186C9.41986 1.41868 10.9997 1.57428 12.4354 2.16898C13.8711 2.76369 15.0982 3.77079 15.9615 5.06292C16.8249 6.35506 17.2857 7.8742 17.2857 9.42823V9.47066C17.8279 9.53195 18.3511 9.65295 18.8493 9.82739C18.854 9.69538 18.8571 9.56181 18.8571 9.42823ZM9.60458 14.9252C9.73657 14.3469 9.93772 13.7954 10.2017 13.2815C9.53062 13.4173 8.83564 13.3749 8.18605 13.1585C7.53645 12.942 6.95492 12.5591 6.49943 12.0479C6.35835 11.9015 6.16606 11.8156 5.96294 11.808C5.75982 11.8005 5.56168 11.872 5.41014 12.0075C5.25861 12.1429 5.16547 12.3318 5.15028 12.5345C5.1351 12.7372 5.19906 12.9379 5.32872 13.0945C5.86377 13.6939 6.52388 14.1685 7.26243 14.4848C8.00099 14.8012 8.80156 14.9515 9.60458 14.9252ZM7.85715 7.85676C7.85715 8.16935 7.73298 8.46913 7.51195 8.69016C7.29093 8.91119 6.99115 9.03537 6.67858 9.03537C6.366 9.03537 6.06622 8.91119 5.8452 8.69016C5.62418 8.46913 5.5 8.16935 5.5 7.85676C5.5 7.54418 5.62418 7.24439 5.8452 7.02336C6.06622 6.80233 6.366 6.67816 6.67858 6.67816C6.99115 6.67816 7.29093 6.80233 7.51195 7.02336C7.73298 7.24439 7.85715 7.54418 7.85715 7.85676ZM12.1786 9.03537C12.4912 9.03537 12.7909 8.91119 13.0119 8.69016C13.233 8.46913 13.3571 8.16935 13.3571 7.85676C13.3571 7.54418 13.233 7.24439 13.0119 7.02336C12.7909 6.80233 12.4912 6.67816 12.1786 6.67816C11.866 6.67816 11.5662 6.80233 11.3452 7.02336C11.1242 7.24439 11 7.54418 11 7.85676C11 8.16935 11.1242 8.46913 11.3452 8.69016C11.5662 8.91119 11.866 9.03537 12.1786 9.03537ZM22 16.4999C22 17.9586 21.4205 19.3576 20.3891 20.389C19.3576 21.4205 17.9587 22 16.5 22C15.0413 22 13.6424 21.4205 12.6109 20.389C11.5795 19.3576 11 17.9586 11 16.4999C11 15.0411 11.5795 13.6421 12.6109 12.6107C13.6424 11.5792 15.0413 10.9997 16.5 10.9997C17.9587 10.9997 19.3576 11.5792 20.3891 12.6107C21.4205 13.6421 22 15.0411 22 16.4999ZM17.2857 13.3569C17.2857 13.1485 17.2029 12.9487 17.0556 12.8013C16.9082 12.654 16.7084 12.5712 16.5 12.5712C16.2916 12.5712 16.0918 12.654 15.9444 12.8013C15.7971 12.9487 15.7143 13.1485 15.7143 13.3569V15.7141H13.3571C13.1488 15.7141 12.9489 15.7969 12.8016 15.9443C12.6542 16.0916 12.5714 16.2915 12.5714 16.4999C12.5714 16.7082 12.6542 16.9081 12.8016 17.0555C12.9489 17.2028 13.1488 17.2856 13.3571 17.2856H15.7143V19.6428C15.7143 19.8512 15.7971 20.051 15.9444 20.1984C16.0918 20.3457 16.2916 20.4285 16.5 20.4285C16.7084 20.4285 16.9082 20.3457 17.0556 20.1984C17.2029 20.051 17.2857 19.8512 17.2857 19.6428V17.2856H19.6429C19.8512 17.2856 20.0511 17.2028 20.1984 17.0555C20.3458 16.9081 20.4286 16.7082 20.4286 16.4999C20.4286 16.2915 20.3458 16.0916 20.1984 15.9443C20.0511 15.7969 19.8512 15.7141 19.6429 15.7141H17.2857V13.3569Z" fill="#222222"/>
</svg>