<svg xmlns="http://www.w3.org/2000/svg" width="24" height="24" viewBox="0 0 24 24" fill="none">
  <g clip-path="url(#clip0_965_24)">
    <path d="M16.4998 11C17.4553 10.9999 18.3944 11.2488 19.2245 11.7221C20.0546 12.1955 20.7471 12.8769 21.2337 13.6993C21.7203 14.5217 21.9842 15.4567 21.9995 16.4121C22.0147 17.3675 21.7808 18.3105 21.3207 19.148L21.7068 20.459C21.7578 20.6323 21.7612 20.8161 21.7166 20.9911C21.672 21.1661 21.5811 21.3259 21.4533 21.4536C21.3256 21.5813 21.1659 21.6722 20.9908 21.7168C20.8158 21.7614 20.632 21.758 20.4587 21.707L19.1488 21.321C18.4137 21.7246 17.5961 21.9548 16.7584 21.994C15.9208 22.0332 15.0852 21.8803 14.3157 21.547C13.5462 21.2137 12.8631 20.7089 12.3186 20.0712C11.7741 19.4334 11.3826 18.6796 11.1742 17.8673C10.9657 17.0551 10.9457 16.2059 11.1158 15.3847C11.2858 14.5636 11.6414 13.7922 12.1553 13.1295C12.6692 12.4668 13.3278 11.9305 14.0808 11.5614C14.8338 11.1923 15.6612 11.0003 16.4998 11ZM10.9998 3C12.9897 3.00027 14.9234 3.65974 16.4989 4.87535C18.0744 6.09096 19.2028 7.79422 19.7078 9.719C18.1942 9.00161 16.4842 8.81149 14.8501 9.17894C13.2159 9.54638 11.7518 10.4502 10.6911 11.7465C9.6304 13.0427 9.03408 14.6567 8.99723 16.3312C8.96037 18.0057 9.48509 19.6444 10.4878 20.986C9.04063 20.9055 7.6347 20.4748 6.39075 19.731L3.74075 20.511C3.56693 20.5623 3.38251 20.5657 3.20689 20.521C3.03127 20.4763 2.87095 20.3851 2.7428 20.2569C2.61466 20.1288 2.52343 19.9685 2.47872 19.7929C2.43402 19.6172 2.43748 19.4328 2.48875 19.259L3.26875 16.609C2.45418 15.2428 2.01624 13.6851 1.99952 12.0946C1.9828 10.5041 2.3879 8.93754 3.17357 7.55452C3.95924 6.17149 5.09741 5.02139 6.47216 4.22134C7.84691 3.42129 9.40914 2.99987 10.9998 3Z" fill="#FFD46A"/>
  </g>
  <defs>
    <clipPath id="clip0_965_24">
      <rect width="24" height="24" fill="white"/>
    </clipPath>
  </defs>
</svg>