<svg xmlns="http://www.w3.org/2000/svg" width="24" height="24" viewBox="0 0 24 24" fill="none">
  <path d="M2.59619 16.9698C2.59619 16.5051 2.71619 16.1058 2.95619 15.7718C3.19686 15.4384 3.52019 15.1718 3.92619 14.9718C4.79286 14.5584 5.65419 14.2291 6.51019 13.9838C7.36486 13.7378 8.39352 13.6148 9.59619 13.6148C10.7989 13.6148 11.8279 13.7378 12.6832 13.9838C13.5379 14.2291 14.3989 14.5581 15.2662 14.9708C15.6722 15.1708 15.9955 15.4378 16.2362 15.7718C16.4762 16.1058 16.5962 16.5048 16.5962 16.9688V17.5768C16.5962 17.8321 16.4965 18.0688 16.2972 18.2868C16.0979 18.5054 15.8512 18.6148 15.5572 18.6148H3.63619C3.34286 18.6148 3.09619 18.5151 2.89619 18.3158C2.69686 18.1164 2.59719 17.8698 2.59719 17.5758L2.59619 16.9698ZM18.3732 18.6148C18.4412 18.4561 18.4955 18.2884 18.5362 18.1118C18.5762 17.9358 18.5962 17.7574 18.5962 17.5768V16.9228C18.5962 16.3428 18.4789 15.7961 18.2442 15.2828C18.0095 14.7674 17.6769 14.3258 17.2462 13.9578C17.7375 14.0578 18.2109 14.1964 18.6662 14.3738C19.1209 14.5511 19.5709 14.7511 20.0162 14.9738C20.4495 15.1911 20.7892 15.4698 21.0352 15.8098C21.2812 16.1498 21.4042 16.5208 21.4042 16.9228V17.5768C21.4042 17.8701 21.3042 18.1168 21.1042 18.3168C20.9055 18.5154 20.6592 18.6148 20.3652 18.6148H18.3732ZM9.59619 11.3848C8.77152 11.3848 8.06519 11.0908 7.47719 10.5028C6.88919 9.91477 6.59586 9.20877 6.59719 8.38477C6.59719 7.55943 6.89053 6.85277 7.47719 6.26477C8.06519 5.6781 8.77186 5.38477 9.59719 5.38477C10.4225 5.38477 11.1285 5.6781 11.7152 6.26477C12.3025 6.85277 12.5962 7.55943 12.5962 8.38477C12.5962 9.20943 12.3025 9.91543 11.7152 10.5028C11.1279 11.0901 10.4215 11.3841 9.59619 11.3848ZM16.8662 8.38477C16.8662 9.20943 16.5722 9.91543 15.9842 10.5028C15.3962 11.0901 14.6899 11.3841 13.8652 11.3848C13.8232 11.3848 13.7695 11.3798 13.7042 11.3698C13.6389 11.3604 13.5849 11.3498 13.5422 11.3378C13.8809 10.9231 14.1412 10.4631 14.3232 9.95777C14.5052 9.45177 14.5962 8.92643 14.5962 8.38177C14.5962 7.8371 14.5012 7.3171 14.3112 6.82177C14.1212 6.32643 13.8649 5.86277 13.5422 5.43077C13.5962 5.41077 13.6502 5.3981 13.7042 5.39277C13.7575 5.38743 13.8112 5.38477 13.8652 5.38477C14.6905 5.38477 15.3972 5.6781 15.9852 6.26477C16.5732 6.85143 16.8675 7.5581 16.8662 8.38477Z" fill="#5B5B5B"/>
</svg>