<svg width="32" height="32" viewBox="0 0 32 32" fill="none" xmlns="http://www.w3.org/2000/svg">
<g id="emojione:smiling-face-with-heart-eyes">
<path id="Vector" d="M31 16C31 24.3 24.3 31 16 31C7.7 31 1 24.3 1 16C1 7.7 7.7 1 16 1C24.3 1 31 7.7 31 16Z" fill="#FFDD67"/>
<path id="Vector_2" d="M30.9 6.59989C30.65 5.24989 29.9 4.14989 28.65 3.79989C27.3 3.44989 26.1 3.94989 24.95 5.14989C24.3 3.34989 23.3 1.99989 21.7 1.29989C20.1 0.599892 18.5 1.09989 17.5 2.34989C16.45 3.64989 16.05 5.69989 17.15 8.34989C18.2 10.8499 22.85 15.8499 23 15.9999C23.2 15.8999 28.4 12.6499 29.65 11.0499C30.9 9.49989 31.15 7.94989 30.9 6.59989ZM14.5 2.34989C13.5 1.09989 11.9 0.599892 10.3 1.29989C8.7 1.99989 7.7 3.34989 7.05 5.14989C5.85 3.99989 4.65 3.44989 3.3 3.84989C2.1 4.19989 1.3 5.29989 1.05 6.64989C0.8 7.94989 1.1 9.54989 2.3 11.0999C3.6 12.6499 8.8 15.8999 9 15.9999C9.15 15.8499 13.8 10.8499 14.85 8.34989C15.95 5.69989 15.55 3.69989 14.5 2.34989Z" fill="#F46767"/>
<path id="Vector_3" d="M24.5 19.0501C24.5 18.6501 24.25 18.1501 23.6 18.0001C21.85 17.6501 19.3 17.3501 16 17.3501C12.7 17.3501 10.15 17.7001 8.4 18.0001C7.7 18.1501 7.5 18.6501 7.5 19.0501C7.5 22.7001 10.3 26.3501 16 26.3501C21.7 26.3001 24.5 22.6501 24.5 19.0501Z" fill="#664E27"/>
<path id="Vector_4" d="M22.35 19.1499C21.25 18.9499 18.95 18.6499 16 18.6499C13.05 18.6499 10.75 18.9499 9.64999 19.1499C8.99999 19.2499 8.94999 19.4999 8.99999 19.8999C9.04999 20.0999 9.04999 20.3999 9.14999 20.6999C9.19999 20.9999 9.29999 21.1499 9.79999 21.0999C10.75 20.9999 21.3 20.9999 22.25 21.0999C22.75 21.1499 22.8 20.9999 22.9 20.6999C22.95 20.3999 23 20.1499 23.05 19.8999C23.05 19.4999 23 19.2499 22.35 19.1499Z" fill="white"/>
</g>
</svg>
