<?xml version="1.0" encoding="utf-8"?>
<!-- Generator: Adobe Illustrator 27.9.0, SVG Export Plug-In . SVG Version: 6.00 Build 0)  -->
<svg version="1.1" id="레이어_1" xmlns="http://www.w3.org/2000/svg" xmlns:xlink="http://www.w3.org/1999/xlink" x="0px"
	 y="0px" viewBox="0 0 32 32" style="enable-background:new 0 0 32 32;" xml:space="preserve">
<style type="text/css">
	.st0{clip-path:url(#SVGID_00000018925433214804850020000017612730675904128162_);}
	.st1{fill:#FFCC4D;}
	.st2{fill:#FFFFFF;}
	.st3{fill-rule:evenodd;clip-rule:evenodd;fill:#FFFFFF;}
</style>
<g>
	<defs>
		<rect id="SVGID_1_" width="32" height="32"/>
	</defs>
	<clipPath id="SVGID_00000036240811784906906360000009569926485026783106_">
		<use xlink:href="#SVGID_1_"  style="overflow:visible;"/>
	</clipPath>
	<g id="twemoji:angry-face" style="clip-path:url(#SVGID_00000036240811784906906360000009569926485026783106_);">
		<path id="Vector" class="st1" d="M32,16c0,8.8-7.2,16-16,16C7.2,32,0,24.8,0,16C0,7.2,7.2,0,16,0C24.8,0,32,7.2,32,16z"/>
	</g>
</g>
<path class="st2" d="M25.2,19.9l0.7-4.1c0.2-1-0.6-2-1.6-2h-5.2c-0.5,0-0.9-0.5-0.8-1l0.7-4.1c0.1-0.7,0.1-1.3-0.1-2
	c-0.1-0.5-0.6-1-1.1-1.1l-0.1,0c-0.3-0.1-0.7-0.1-1,0.1c-0.3,0.2-0.6,0.5-0.7,0.8l-0.5,1.8c-0.2,0.6-0.4,1.2-0.7,1.7
	c-0.4,0.8-1.1,1.4-1.7,2l-1.4,1.2c-0.4,0.4-0.6,0.9-0.6,1.4l0.8,9.4c0.1,0.9,0.8,1.5,1.7,1.5h4.7C21.7,25.7,24.7,23.2,25.2,19.9z"/>
<path class="st3" d="M7.9,13.1c0.4,0,0.7,0.3,0.8,0.7l1,11.3c0.1,0.7-0.5,1.3-1.2,1.3c-0.7,0-1.2-0.6-1.2-1.2V13.9
	C7.1,13.4,7.5,13.1,7.9,13.1z"/>
</svg>
