<svg xmlns="http://www.w3.org/2000/svg" width="24" height="24" viewBox="0 0 24 24" fill="none">
  <path d="M6 14C5.45 14 4.97933 13.8043 4.588 13.413C4.19667 13.0217 4.00067 12.5507 4 12C4 11.45 4.196 10.9793 4.588 10.588C4.98 10.1967 5.45067 10.0007 6 10C6.55 10 7.021 10.196 7.413 10.588C7.805 10.98 8.00067 11.4507 8 12C8 12.55 7.80433 13.021 7.413 13.413C7.02167 13.805 6.55067 14.0007 6 14ZM12 14C11.45 14 10.9793 13.8043 10.588 13.413C10.1967 13.0217 10.0007 12.5507 10 12C10 11.45 10.196 10.9793 10.588 10.588C10.98 10.1967 11.4507 10.0007 12 10C12.55 10 13.021 10.196 13.413 10.588C13.805 10.98 14.0007 11.4507 14 12C14 12.55 13.8043 13.021 13.413 13.413C13.0217 13.805 12.5507 14.0007 12 14ZM18 14C17.45 14 16.9793 13.8043 16.588 13.413C16.1967 13.0217 16.0007 12.5507 16 12C16 11.45 16.196 10.9793 16.588 10.588C16.98 10.1967 17.4507 10.0007 18 10C18.55 10 19.021 10.196 19.413 10.588C19.805 10.98 20.0007 11.4507 20 12C20 12.55 19.8043 13.021 19.413 13.413C19.0217 13.805 18.5507 14.0007 18 14Z" fill="#5B5B5B"/>
</svg>