<svg xmlns="http://www.w3.org/2000/svg" width="24" height="24" viewBox="0 0 24 24" fill="none">
  <path d="M12.003 21C10.759 21 9.589 20.764 8.493 20.292C7.39767 19.8193 6.44467 19.178 5.634 18.368C4.82333 17.5587 4.18167 16.6067 3.709 15.512C3.23633 14.4173 3 13.2477 3 12.003C3 10.759 3.236 9.589 3.708 8.493C4.18067 7.39767 4.822 6.44467 5.632 5.634C6.44133 4.82333 7.39333 4.18167 8.488 3.709C9.58267 3.23633 10.7523 3 11.997 3C13.241 3 14.411 3.236 15.507 3.708C16.6023 4.18067 17.5553 4.822 18.366 5.632C19.1767 6.44133 19.8183 7.39333 20.291 8.488C20.7637 9.58267 21 10.7523 21 11.997C21 13.241 20.764 14.411 20.292 15.507C19.8193 16.6023 19.178 17.5553 18.368 18.366C17.5587 19.1767 16.6067 19.8183 15.512 20.291C14.4173 20.7637 13.2477 21 12.003 21ZM11 19.95V18C10.45 18 9.97933 17.8043 9.588 17.413C9.19667 17.0217 9.00067 16.5507 9 16V15L4.2 10.2C4.15 10.5 4.10433 10.8 4.063 11.1C4.02167 11.4 4.00067 11.7 4 12C4 14.0167 4.66267 15.7833 5.988 17.3C7.31333 18.8167 8.984 19.7 11 19.95ZM17.9 17.4C18.2333 17.0333 18.5333 16.6377 18.8 16.213C19.0667 15.7883 19.2873 15.3467 19.462 14.888C19.6373 14.4293 19.7707 13.9583 19.862 13.475C19.9533 12.9917 19.9993 12.5 20 12C20 10.3573 19.549 8.857 18.647 7.499C17.745 6.141 16.5293 5.162 15 4.562V5C15 5.55 14.8043 6.021 14.413 6.413C14.0217 6.805 13.5507 7.00067 13 7H11V9C11 9.28333 10.904 9.521 10.712 9.713C10.52 9.905 10.2827 10.0007 10 10H8V12H14C14.2833 12 14.521 12.096 14.713 12.288C14.905 12.48 15.0007 12.7173 15 13V16H16C16.4333 16 16.825 16.1293 17.175 16.388C17.525 16.6467 17.7667 16.984 17.9 17.4Z" fill="#5B5B5B"/>
</svg>