<svg width="32" height="32" viewBox="0 0 32 32" fill="none" xmlns="http://www.w3.org/2000/svg">
<g id="twemoji:sad-but-relieved-face" clip-path="url(#clip0_235_674)">
<path id="Vector" d="M32 16C32 24.8364 24.8364 32 16 32C7.16444 32 0 24.8364 0 16C0 7.16444 7.16444 0 16 0C24.8364 0 32 7.16444 32 16Z" fill="#FFCC4D"/>
<path id="Vector_2" d="M10.2222 17.7779C11.4495 17.7779 12.4444 16.385 12.4444 14.6668C12.4444 12.9486 11.4495 11.5557 10.2222 11.5557C8.99492 11.5557 8 12.9486 8 14.6668C8 16.385 8.99492 17.7779 10.2222 17.7779Z" fill="#664500"/>
<path id="Vector_3" d="M21.7778 17.7779C23.0051 17.7779 24 16.385 24 14.6668C24 12.9486 23.0051 11.5557 21.7778 11.5557C20.5505 11.5557 19.5555 12.9486 19.5555 14.6668C19.5555 16.385 20.5505 17.7779 21.7778 17.7779Z" fill="#664500"/>
<path id="Vector_4" d="M20.8756 24.7811C20.8658 24.742 19.8578 20.8887 16 20.8887C12.1422 20.8887 11.1342 24.742 11.1245 24.7811C11.1024 24.8732 11.1105 24.9699 11.1476 25.057C11.1848 25.1441 11.2489 25.2169 11.3307 25.2647C11.4133 25.3128 11.5091 25.3336 11.6042 25.324C11.6994 25.3144 11.7891 25.275 11.8605 25.2113C11.8685 25.2051 12.7609 24.4442 16 24.4442C19.1911 24.4442 20.104 25.182 20.1387 25.2113C20.2074 25.2774 20.2956 25.3194 20.3901 25.3311C20.4846 25.3428 20.5804 25.3235 20.6631 25.2762C20.7479 25.2283 20.8145 25.154 20.8529 25.0645C20.8913 24.9751 20.8993 24.8755 20.8756 24.7811Z" fill="#664500"/>
<path id="Vector_5" d="M8.88889 26.6667C8.88889 29.1218 6.89956 31.1112 4.44444 31.1112C1.98933 31.1112 0 29.1218 0 26.6667C0 24.2116 3.55556 17.7778 4.44444 17.7778C5.33333 17.7778 8.88889 24.2116 8.88889 26.6667Z" fill="#5DADEC"/>
<path id="Vector_6" d="M26.6667 11.5555C21.7298 11.5555 19.7316 7.67368 19.6489 7.50835C19.5429 7.2977 19.525 7.0536 19.599 6.82972C19.673 6.60584 19.8329 6.42054 20.0436 6.31457C20.2542 6.2086 20.4983 6.19065 20.7222 6.26466C20.9461 6.33868 21.1314 6.49859 21.2373 6.70923C21.304 6.83901 22.856 9.77768 26.6667 9.77768C26.9024 9.77768 27.1285 9.87133 27.2952 10.038C27.4619 10.2047 27.5556 10.4308 27.5556 10.6666C27.5556 10.9023 27.4619 11.1284 27.2952 11.2951C27.1285 11.4618 26.9024 11.5555 26.6667 11.5555ZM5.33335 11.5555C5.0976 11.5555 4.87151 11.4618 4.70481 11.2951C4.53811 11.1284 4.44446 10.9023 4.44446 10.6666C4.44446 10.4308 4.53811 10.2047 4.70481 10.038C4.87151 9.87133 5.0976 9.77768 5.33335 9.77768C9.85157 9.77768 10.6631 7.00435 10.696 6.88612C10.8249 6.41679 11.3093 6.13235 11.7796 6.2559C12.2507 6.37946 12.536 6.85412 12.4178 7.32701C12.3742 7.49946 11.2925 11.5555 5.33335 11.5555Z" fill="#664500"/>
</g>
<defs>
<clipPath id="clip0_235_674">
<rect width="32" height="32" fill="white"/>
</clipPath>
</defs>
</svg>
