<svg width="36" height="36" viewBox="0 0 36 36" fill="none" xmlns="http://www.w3.org/2000/svg">
<g id="fxemoji:smiletongue">
<path id="Vector" d="M17.5781 2.10938C9.03516 2.10938 2.10938 9.03516 2.10938 17.5781C2.10938 17.8102 2.11641 18.0422 2.12344 18.2672C1.22344 18.3867 0.527344 19.1461 0.527344 20.0813C0.527344 21.0938 1.35 21.9164 2.3625 21.9164H2.72812C4.60547 28.35 10.5398 33.0469 17.5781 33.0469C26.1211 33.0469 33.0469 26.1211 33.0469 17.5781C33.0469 9.03516 26.1211 2.10938 17.5781 2.10938Z" fill="#FFD46A"/>
<path id="Vector_2" d="M33.0258 18.2674C33.0328 18.0354 33.0398 17.8104 33.0398 17.5783C33.0398 13.4439 31.4156 9.69629 28.7719 6.91895C30.2695 9.3377 31.1273 12.1924 31.1273 15.2439C31.1273 24.0189 24.0117 31.1346 15.2367 31.1346C12.1851 31.1346 9.33046 30.2697 6.91171 28.7791C9.68906 31.4229 13.4437 33.0471 17.5781 33.0471C24.6164 33.0471 30.5437 28.3502 32.4211 21.9236H32.7867C33.7992 21.9236 34.6219 21.101 34.6219 20.0885C34.6289 19.1533 33.9258 18.3869 33.0258 18.2674Z" fill="#FCB537"/>
<path id="Vector_3" d="M17.7047 26.7257C14.4633 26.7257 11.482 25.2351 9.73828 22.746C9.51328 22.4226 9.59062 21.9796 9.91406 21.7546C10.2375 21.5296 10.6805 21.607 10.9055 21.9304C12.382 24.0468 14.9273 25.3054 17.7047 25.3054C20.482 25.3054 23.0273 24.0468 24.5039 21.9304C24.7289 21.607 25.1719 21.5296 25.4953 21.7546C25.8187 21.9796 25.8961 22.4226 25.6711 22.746C23.9273 25.2421 20.9461 26.7257 17.7047 26.7257Z" fill="#2C3C48"/>
<path id="Vector_4" d="M11.8125 10.9969C11.6648 10.9969 11.5172 10.9336 11.4117 10.8141C11.0039 10.35 10.4133 10.0898 9.79453 10.0898C9.17578 10.0898 8.58515 10.357 8.17734 10.8141C7.98046 11.0391 7.64296 11.0531 7.41796 10.8633C7.19296 10.6664 7.17187 10.3289 7.36875 10.1039C7.98046 9.41484 8.8664 9.01406 9.79453 9.01406C10.7227 9.01406 11.6086 9.40781 12.2203 10.1039C12.4172 10.3289 12.3961 10.6664 12.1711 10.8633C12.0656 10.9477 11.9391 10.9969 11.8125 10.9969ZM27.3937 10.9898C27.2461 10.9898 27.0984 10.9266 26.993 10.807C26.5852 10.343 25.9945 10.0828 25.3758 10.0828C24.757 10.0828 24.1664 10.35 23.7586 10.807C23.5617 11.032 23.2242 11.0461 22.9992 10.8492C22.7742 10.6523 22.7602 10.3148 22.95 10.0898C23.5617 9.40078 24.4477 9 25.3758 9C26.3039 9 27.1898 9.39375 27.8016 10.0898C27.9984 10.3148 27.9773 10.6523 27.7523 10.8492C27.6469 10.9477 27.5203 10.9898 27.3937 10.9898Z" fill="#F2A84E"/>
<path id="Vector_5" d="M12.0727 15.743C11.6438 14.7797 10.7719 14.175 9.7875 14.175C8.81016 14.175 7.93125 14.7727 7.50235 15.743C7.47422 15.8062 7.46016 15.8695 7.45313 15.9398C7.3336 16.2211 7.38985 16.5516 7.62891 16.7625C7.76953 16.882 7.93828 16.9453 8.10703 16.9453C8.30391 16.9453 8.50782 16.8609 8.64844 16.6992C8.93672 16.3758 9.35157 16.1859 9.79453 16.1859C10.2305 16.1859 10.6523 16.3758 10.9406 16.6992C11.2078 16.9945 11.6578 17.0227 11.9602 16.7625C12.1992 16.5516 12.2555 16.2141 12.1359 15.9398C12.1148 15.8695 12.1008 15.8062 12.0727 15.743ZM27.7031 15.9328C27.6961 15.8695 27.682 15.7992 27.6539 15.7359C27.225 14.7727 26.3531 14.168 25.3688 14.168C24.3914 14.168 23.5125 14.7656 23.0836 15.7359C23.0555 15.7992 23.0414 15.8625 23.0344 15.9328C22.9148 16.2141 22.9641 16.5445 23.2102 16.7555C23.3508 16.875 23.5195 16.9383 23.6883 16.9383C23.8852 16.9383 24.0891 16.8539 24.2297 16.6922C24.518 16.3687 24.9328 16.1789 25.3758 16.1789C25.8117 16.1789 26.2336 16.3687 26.5219 16.6922C26.7891 16.9875 27.2391 17.0156 27.5414 16.7555C27.7664 16.5516 27.8227 16.2141 27.7031 15.9328Z" fill="#2C3C48"/>
<path id="Vector_6" d="M11.2359 22.3662C11.1234 22.4717 10.6242 22.9498 10.2234 23.3646C10.0758 23.5123 9.94219 23.66 9.85078 23.7725C9.15469 24.6162 8.34609 25.5865 8.34609 25.5865C7.34063 27.0279 7.68516 29.0107 9.13359 30.0232C10.575 31.0287 12.5578 30.6771 13.5633 29.2357C13.5633 29.2357 14.8289 27.724 15.8063 26.5498C15.8414 26.5076 15.8836 26.4584 15.9188 26.4162C16.1859 26.0928 16.6289 25.5232 16.8328 25.2561C14.5898 25.0451 12.5719 24.0045 11.2359 22.3662Z" fill="#F04C44"/>
<path id="Vector_7" d="M9.94218 29.6507C9.8789 29.6507 9.81562 29.6296 9.75937 29.5945C9.61171 29.4961 9.57655 29.2921 9.68202 29.1445L11.4609 26.5992C11.5594 26.4515 11.7633 26.4164 11.9109 26.5218C12.0586 26.6203 12.0937 26.8242 11.9883 26.9648L10.2094 29.5101C10.1461 29.6015 10.0476 29.6507 9.94218 29.6507Z" fill="#D32B2A"/>
</g>
</svg>
