<svg width="32" height="32" viewBox="0 0 32 32" fill="none" xmlns="http://www.w3.org/2000/svg">
<g id="twemoji:angry-face" clip-path="url(#clip0_235_671)">
<path id="Vector" d="M32 16C32 24.8364 24.8364 32 16 32C7.16444 32 0 24.8364 0 16C0 7.16444 7.16444 0 16 0C24.8364 0 32 7.16444 32 16Z" fill="#FFCC4D"/>
<path id="Vector_2" d="M22.6533 26.559C22.6133 26.3999 21.6151 22.6666 16 22.6666C10.384 22.6666 9.38667 26.3999 9.34667 26.559C9.32331 26.6528 9.33125 26.7517 9.36928 26.8406C9.40731 26.9295 9.47335 27.0035 9.55734 27.0514C9.64179 27.0989 9.73927 27.1178 9.83533 27.1055C9.93139 27.0932 10.0209 27.0502 10.0907 26.983C10.1076 26.9661 11.8276 25.3332 16 25.3332C20.1724 25.3332 21.8933 26.9661 21.9093 26.9821C21.9782 27.0501 22.0672 27.0939 22.1631 27.1069C22.259 27.1199 22.3565 27.1014 22.4409 27.0541C22.5256 27.0062 22.5923 26.9319 22.6307 26.8424C22.6691 26.753 22.677 26.6534 22.6533 26.559ZM13.9618 15.3714C11.0684 12.4781 6.41867 12.4443 6.22223 12.4443C5.99335 12.4545 5.7772 12.5525 5.61878 12.718C5.46036 12.8835 5.37188 13.1037 5.37177 13.3328C5.37165 13.5619 5.45991 13.7822 5.61816 13.9479C5.77642 14.1135 5.99247 14.2118 6.22134 14.2221C6.24712 14.2221 7.93245 14.2417 9.76178 14.8772C9.23467 15.4461 8.88889 16.3297 8.88889 17.3332C8.88889 19.0523 9.88356 20.4443 11.1111 20.4443C12.3387 20.4443 13.3333 19.0523 13.3333 17.3332C13.3333 17.1786 13.3164 17.031 13.3004 16.8826C13.312 16.8826 13.3227 16.8888 13.3333 16.8888C13.5093 16.8892 13.6814 16.8373 13.8278 16.7397C13.9743 16.6421 14.0884 16.5032 14.1557 16.3406C14.2231 16.178 14.2406 15.9991 14.206 15.8265C14.1715 15.654 14.0865 15.4956 13.9618 15.3714ZM25.7778 12.4443C25.5813 12.4443 20.9324 12.4781 18.0382 15.3714C17.9135 15.4956 17.8285 15.654 17.794 15.8265C17.7594 15.9991 17.777 16.178 17.8443 16.3406C17.9116 16.5032 18.0257 16.6421 18.1722 16.7397C18.3186 16.8373 18.4907 16.8892 18.6667 16.8888C18.6782 16.8888 18.688 16.8826 18.6987 16.8826C18.6844 17.031 18.6667 17.1786 18.6667 17.3332C18.6667 19.0523 19.6613 20.4443 20.8889 20.4443C22.1164 20.4443 23.1111 19.0523 23.1111 17.3332C23.1111 16.3297 22.7653 15.4461 22.2382 14.8772C23.3804 14.4874 24.5735 14.2667 25.7796 14.2221C25.8963 14.222 26.0119 14.1989 26.1197 14.1541C26.2275 14.1093 26.3254 14.0438 26.4078 13.9611C26.4903 13.8785 26.5557 13.7805 26.6002 13.6726C26.6448 13.5647 26.6677 13.4491 26.6676 13.3323C26.6674 13.2156 26.6443 13.1 26.5996 12.9922C26.5548 12.8844 26.4892 12.7865 26.4066 12.7041C26.324 12.6216 26.2259 12.5562 26.118 12.5117C26.0101 12.4671 25.8945 12.4442 25.7778 12.4443Z" fill="#664500"/>
</g>
<defs>
<clipPath id="clip0_235_671">
<rect width="32" height="32" fill="white"/>
</clipPath>
</defs>
</svg>
