<?xml version="1.0" encoding="utf-8"?>
<!-- Generator: Adobe Illustrator 27.9.0, SVG Export Plug-In . SVG Version: 6.00 Build 0)  -->
<svg version="1.1" id="레이어_1" xmlns="http://www.w3.org/2000/svg" xmlns:xlink="http://www.w3.org/1999/xlink" x="0px"
	 y="0px" viewBox="0 0 32 32" style="enable-background:new 0 0 32 32;" xml:space="preserve">
<style type="text/css">
	.st0{clip-path:url(#SVGID_00000127749682854412646250000014704973411080684163_);}
	.st1{fill:#FFCC4D;}
	.st2{fill:#FFFFFF;}
	.st3{fill-rule:evenodd;clip-rule:evenodd;fill:#FFFFFF;}
</style>
<g>
	<defs>
		<rect id="SVGID_1_" width="32" height="32"/>
	</defs>
	<clipPath id="SVGID_00000049928547279507347700000016812619777131247014_">
		<use xlink:href="#SVGID_1_"  style="overflow:visible;"/>
	</clipPath>
	<g id="twemoji:angry-face" style="clip-path:url(#SVGID_00000049928547279507347700000016812619777131247014_);">
		<path id="Vector" class="st1" d="M32,16c0,8.8-7.2,16-16,16C7.2,32,0,24.8,0,16C0,7.2,7.2,0,16,0C24.8,0,32,7.2,32,16z"/>
	</g>
</g>
<path class="st2" d="M18.2,6.7h-4.7c-0.9,0-1.6,0.7-1.7,1.5L11,17.7c0,0.5,0.2,1.1,0.6,1.4l1.4,1.2c0.7,0.6,1.3,1.2,1.7,2
	c0.3,0.5,0.5,1.1,0.7,1.7l0.5,1.8c0.1,0.4,0.3,0.7,0.7,0.8c0.3,0.1,0.7,0.2,1,0.1l0.1,0c0.5-0.2,1-0.6,1.1-1.1
	c0.2-0.6,0.2-1.3,0.1-2l-0.7-4.1c-0.1-0.5,0.3-1,0.8-1h5.2c1,0,1.8-0.9,1.6-2l-0.7-4.1C24.7,9.1,21.7,6.7,18.2,6.7z"/>
<path class="st3" d="M7.1,18.5V7.2C7.1,6.5,7.7,6,8.4,6c0.7,0,1.3,0.6,1.2,1.3l-1,11.3c0,0.4-0.4,0.7-0.8,0.7
	C7.5,19.3,7.1,18.9,7.1,18.5z"/>
</svg>
