<svg xmlns="http://www.w3.org/2000/svg" width="32" height="32" viewBox="0 0 32 32" fill="none">
  <path d="M6.66637 21.7921C6.4904 21.7925 6.31828 21.7406 6.17186 21.643C6.02545 21.5454 5.91133 21.4065 5.84399 21.2439C5.77666 21.0813 5.75914 20.9024 5.79367 20.7299C5.8282 20.5573 5.91321 20.3989 6.03792 20.2748L20.2753 6.03832C20.3578 5.95579 20.4558 5.89033 20.5636 5.84566C20.6714 5.801 20.787 5.77801 20.9037 5.77801C21.0204 5.77801 21.136 5.801 21.2438 5.84566C21.3516 5.89033 21.4496 5.95579 21.5321 6.03832C21.6147 6.12085 21.6801 6.21883 21.7248 6.32666C21.7695 6.43448 21.7925 6.55005 21.7925 6.66677C21.7925 6.78348 21.7695 6.89905 21.7248 7.00688C21.6801 7.11471 21.6147 7.21268 21.5321 7.29521L7.29481 21.5317C7.12815 21.6984 6.9021 21.7921 6.66637 21.7921ZM14.0281 11.3583C13.8612 11.358 13.6977 11.3107 13.5564 11.2219C13.415 11.1331 13.3015 11.0063 13.2288 10.856C13.1561 10.7057 13.1272 10.5379 13.1453 10.372C13.1634 10.206 13.2279 10.0485 13.3313 9.91743C13.4317 9.78943 15.6166 6.92988 14.1944 3.18677C14.1504 3.07718 14.1287 2.95992 14.1305 2.84184C14.1324 2.72377 14.1577 2.60725 14.2051 2.49908C14.2525 2.39091 14.3209 2.29326 14.4064 2.21185C14.492 2.13043 14.5929 2.06687 14.7032 2.02488C14.8136 1.98289 14.9312 1.96332 15.0493 1.9673C15.1673 1.97128 15.2833 1.99874 15.3906 2.04807C15.4979 2.0974 15.5943 2.16762 15.6742 2.25462C15.754 2.34161 15.8157 2.44365 15.8557 2.55477C17.6486 7.2721 14.8433 10.8721 14.7233 11.0232C14.6402 11.1279 14.5345 11.2124 14.4141 11.2705C14.2938 11.3285 14.1618 11.3586 14.0281 11.3583ZM17.4859 14.8143C17.3185 14.8151 17.1544 14.7684 17.0124 14.6797C16.8705 14.591 16.7565 14.4639 16.6838 14.3132C16.6111 14.1624 16.5825 13.9941 16.6015 13.8278C16.6204 13.6615 16.686 13.504 16.7908 13.3734C16.9135 13.2205 19.8441 9.64277 25.0779 10.9503C25.1912 10.9786 25.2978 11.0289 25.3916 11.0984C25.4854 11.1679 25.5646 11.2553 25.6247 11.3554C25.6847 11.4556 25.7244 11.5666 25.7414 11.6821C25.7585 11.7976 25.7526 11.9153 25.7241 12.0285C25.6666 12.2569 25.521 12.4532 25.3191 12.5745C25.1172 12.6958 24.8755 12.7322 24.6468 12.6757C20.5375 11.6472 18.2717 14.369 18.1775 14.4854C18.094 14.5883 17.9886 14.6713 17.8689 14.7282C17.7493 14.7851 17.6184 14.8145 17.4859 14.8143ZM5.73659 16.4543C4.76237 16.4543 3.69126 16.289 2.55437 15.8579C2.44523 15.8164 2.34531 15.7539 2.26034 15.6739C2.17536 15.5938 2.10698 15.4978 2.05911 15.3913C2.01123 15.2848 1.9848 15.17 1.98132 15.0533C1.97784 14.9366 1.99737 14.8204 2.03881 14.7112C2.08025 14.6021 2.14278 14.5022 2.22284 14.4172C2.30289 14.3322 2.39889 14.2638 2.50537 14.216C2.61185 14.1681 2.72671 14.1416 2.84341 14.1382C2.9601 14.1347 3.07634 14.1542 3.18548 14.1957C6.9357 15.6214 9.79792 13.4259 9.91792 13.3317C10.1032 13.1868 10.3383 13.121 10.5719 13.1486C10.8055 13.1762 11.0187 13.2951 11.165 13.4792C11.3112 13.663 11.3783 13.8973 11.3518 14.1307C11.3254 14.364 11.2073 14.5773 11.0237 14.7237C10.909 14.8152 8.80592 16.4543 5.73659 16.4543ZM7.12681 9.28454C5.50103 9.28454 2.71081 8.8561 0.422813 6.32277C0.341407 6.23671 0.278025 6.13524 0.236392 6.02434C0.194759 5.91343 0.175714 5.79532 0.180376 5.67695C0.185039 5.55858 0.213315 5.44233 0.263544 5.33505C0.313772 5.22776 0.384938 5.1316 0.472861 5.05221C0.560784 4.97281 0.663689 4.9118 0.775529 4.87274C0.887368 4.83369 1.00589 4.81738 1.12412 4.82479C1.24235 4.83219 1.35791 4.86315 1.464 4.91585C1.5701 4.96854 1.66459 5.04192 1.74192 5.13166C4.42992 8.10854 7.97837 7.45966 8.12948 7.43121C8.36063 7.385 8.60067 7.43251 8.79679 7.56329C8.99291 7.69407 9.12905 7.89739 9.17526 8.12854C9.22146 8.3597 9.17395 8.59973 9.04318 8.79586C8.9124 8.99198 8.70907 9.12812 8.47792 9.17432C8.03193 9.25274 7.57962 9.28963 7.12681 9.28454Z" fill="#31373D"/>
  <path d="M8.30328 9.19222C8.17177 9.19238 8.04185 9.16335 7.92291 9.10723C7.80397 9.0511 7.69896 8.96929 7.61546 8.86768C7.53196 8.76607 7.47205 8.64719 7.44005 8.51963C7.40805 8.39207 7.40475 8.25899 7.43039 8.13C7.46062 7.97622 8.10595 4.42955 5.13084 1.74333C4.95591 1.58526 4.85095 1.36418 4.83903 1.12871C4.83313 1.01213 4.85025 0.895515 4.88941 0.785543C4.92857 0.67557 4.98902 0.574388 5.06728 0.487774C5.14555 0.40116 5.24011 0.33081 5.34557 0.280741C5.45102 0.230672 5.56531 0.201864 5.6819 0.195962C5.91736 0.184043 6.14791 0.266149 6.32284 0.424218C10.0686 3.80733 9.21262 8.29 9.17351 8.47933C9.13291 8.68028 9.02411 8.86103 8.86551 8.99095C8.70692 9.12087 8.5083 9.19197 8.30328 9.19222ZM11.8126 25.7522C11.6145 25.752 11.4221 25.6855 11.2661 25.5635C11.11 25.4414 10.9992 25.2707 10.9513 25.0784C9.64195 19.8384 13.2215 16.9131 13.3744 16.7913C13.5591 16.652 13.7908 16.5902 14.0204 16.619C14.2499 16.6479 14.4592 16.765 14.6037 16.9457C14.7482 17.1263 14.8166 17.3562 14.7944 17.5864C14.7722 17.8167 14.661 18.0292 14.4846 18.1789C14.3602 18.2802 11.6517 20.5496 12.6757 24.6473C12.7086 24.7785 12.7111 24.9154 12.6831 25.0476C12.655 25.1799 12.5972 25.304 12.514 25.4105C12.4307 25.5171 12.3243 25.6032 12.2028 25.6624C12.0812 25.7216 11.9478 25.7524 11.8126 25.7522Z" fill="#31373D"/>
  <path d="M26.5284 17.0371C23.8972 14.4069 21.1106 13.8647 18.6039 15.198C18.4644 13.5322 17.5675 11.6362 16.363 10.4309C15.0404 9.10822 13.6892 8.96156 12.4475 9.50289C13.3879 7.31178 12.9808 4.67622 11.7132 3.40867C10.075 1.77044 7.62969 3.04333 5.33635 5.33578C3.04302 7.62911 1.77013 10.0744 3.40924 11.7127C4.67591 12.9802 7.31235 13.3864 9.50346 12.4469C8.96124 13.6887 9.1088 15.0407 10.4315 16.3624C11.635 17.566 13.5328 18.4629 15.1986 18.6033C13.8652 21.11 14.4066 23.8958 17.0377 26.5278C20.371 29.8602 27.8857 31.4407 29.6635 29.6629C31.4412 27.8851 29.8617 20.3696 26.5284 17.0371Z" fill="#31373D"/>
</svg>