<svg xmlns="http://www.w3.org/2000/svg" width="32" height="32" viewBox="0 0 32 32" fill="none">
  <g clip-path="url(#clip0_1011_244)">
    <path d="M31.1109 15.1111C31.1109 23.4569 24.3456 30.2222 15.9998 30.2222C7.65489 30.2222 0.888672 23.4569 0.888672 15.1111C0.888672 6.76622 7.65489 0 15.9998 0C24.3456 0 31.1109 6.76622 31.1109 15.1111Z" fill="#FFCC4D"/>
    <path d="M11.1109 13.3298C12.3382 13.3298 13.3331 12.1367 13.3331 10.6649C13.3331 9.19311 12.3382 8 11.1109 8C9.88359 8 8.88867 9.19311 8.88867 10.6649C8.88867 12.1367 9.88359 13.3298 11.1109 13.3298Z" fill="#65471B"/>
    <path d="M20.8892 13.3298C22.1165 13.3298 23.1114 12.1367 23.1114 10.6649C23.1114 9.19311 22.1165 8 20.8892 8C19.6619 8 18.667 9.19311 18.667 10.6649C18.667 12.1367 19.6619 13.3298 20.8892 13.3298Z" fill="#65471B"/>
    <path d="M23.5586 24.3299C23.5586 24.3299 24.4448 23.689 23.7053 22.8953C22.9657 22.1015 22.2644 22.9415 22.2644 22.9415L18.5781 26.3779C18.5168 26.1957 18.1701 25.7175 18.0893 25.5361L23.2048 20.7664C23.2048 20.7664 24.0919 20.1255 23.3506 19.3308C22.611 18.5379 21.9088 19.3761 21.9088 19.3761L17.0973 23.8615C16.9861 23.721 16.6875 23.3815 16.5693 23.241L22.1479 18.041C22.1479 18.041 23.0341 17.3993 22.2937 16.6064C21.5541 15.8126 20.8528 16.6517 20.8528 16.6517L15.2724 21.8499C15.139 21.721 14.7284 21.3086 14.5933 21.1868L19.8075 16.3264C19.8075 16.3264 20.6928 15.6846 19.9533 14.8917C19.2128 14.0979 18.5124 14.937 18.5124 14.937L12.9986 20.0757L12.5568 20.4881L12.3595 20.6721C12.3595 20.6721 11.8813 21.3335 11.3933 20.8313L13.0306 17.1353C13.0306 17.1353 13.5461 16.1806 12.5924 15.6641C11.6368 15.1477 11.1213 16.1024 11.1213 16.1024L9.63859 18.5539C9.04925 19.5255 8.43948 20.4899 7.71948 21.369C6.67788 22.6483 6.16045 24.2751 6.27166 25.921C6.38288 27.5669 7.11444 29.1093 8.31865 30.2368C9.52287 31.3643 11.11 31.9928 12.7597 31.9956C14.4093 31.9984 15.9986 31.3751 17.2066 30.2517L17.6039 29.8801L23.5586 24.3299Z" fill="#F4900C"/>
  </g>
  <defs>
    <clipPath id="clip0_1011_244">
      <rect width="32" height="32" fill="white"/>
    </clipPath>
  </defs>
</svg>