<svg xmlns="http://www.w3.org/2000/svg" width="32" height="32" viewBox="0 0 32 32" fill="none">
  <g clip-path="url(#clip0_1011_267)">
    <path d="M32 16C32 24.8364 24.8364 32 16 32C7.16356 32 0 24.8364 0 16C0 7.16356 7.16356 0 16 0C24.8364 0 32 7.16356 32 16Z" fill="#FFCC4D"/>
    <path d="M16.0004 18.6665C12.78 18.6665 10.6431 18.2914 8.00043 17.7776C7.39688 17.6612 6.22266 17.7776 6.22266 19.5554C6.22266 23.111 10.3071 27.5554 16.0004 27.5554C21.6929 27.5554 25.7782 23.111 25.7782 19.5554C25.7782 17.7776 24.604 17.6603 24.0004 17.7776C21.3578 18.2914 19.2209 18.6665 16.0004 18.6665Z" fill="#664500"/>
    <path d="M8 19.5557C8 19.5557 10.6667 20.4446 16 20.4446C21.3333 20.4446 24 19.5557 24 19.5557C24 19.5557 22.2222 23.1112 16 23.1112C9.77778 23.1112 8 19.5557 8 19.5557Z" fill="white"/>
    <path d="M13.9393 3.92286L9.90197 4.63486L7.82197 0.854418C7.70955 0.651979 7.53679 0.489645 7.32775 0.390036C7.11872 0.290426 6.88382 0.258501 6.65578 0.298709C6.42774 0.338916 6.21792 0.449254 6.05555 0.614349C5.89319 0.779444 5.78637 0.991073 5.74997 1.21975L5.08774 5.48375L1.05041 6.19575C0.818173 6.23661 0.604958 6.3503 0.441611 6.52036C0.278264 6.69042 0.173256 6.90804 0.14178 7.14174C0.110305 7.37543 0.153992 7.61308 0.266524 7.8203C0.379055 8.02752 0.554594 8.19357 0.767744 8.29442L4.38552 10.0118L3.72063 14.2891C3.69647 14.4474 3.70675 14.6092 3.75077 14.7632C3.7948 14.9172 3.87153 15.0599 3.97573 15.1816C4.07994 15.3033 4.20916 15.401 4.35459 15.4682C4.50001 15.5354 4.65822 15.5704 4.81841 15.5709C5.10908 15.5709 5.39619 15.4571 5.61041 15.2402L8.73219 12.0749L12.7482 13.9815C12.9604 14.0821 13.199 14.1128 13.4297 14.0693C13.6605 14.0258 13.8715 13.9103 14.0326 13.7394C14.1936 13.5685 14.2963 13.3509 14.3261 13.118C14.3558 12.8851 14.3109 12.6487 14.198 12.4429L12.1109 8.64908L14.9242 5.79753C15.0886 5.62931 15.1955 5.41332 15.2296 5.18055C15.2636 4.94779 15.223 4.71023 15.1136 4.50198C15.0042 4.29373 14.8316 4.1255 14.6206 4.02146C14.4096 3.91741 14.1711 3.88289 13.9393 3.92286ZM18.0602 3.92286L22.0975 4.63486L24.1775 0.854418C24.2897 0.651839 24.4624 0.48935 24.6714 0.389628C24.8804 0.289906 25.1154 0.257929 25.3434 0.298157C25.5715 0.338386 25.7813 0.448815 25.9436 0.61403C26.1059 0.779246 26.2125 0.991005 26.2486 1.21975L26.9109 5.48375L30.9482 6.19575C31.4246 6.27931 31.7917 6.66153 31.8557 7.14064C31.9197 7.61975 31.6682 8.08553 31.2309 8.29353L27.6131 10.0109L28.278 14.2882C28.3021 14.4466 28.2918 14.6083 28.2478 14.7623C28.2038 14.9163 28.1271 15.059 28.0229 15.1807C27.9187 15.3024 27.7894 15.4001 27.644 15.4673C27.4986 15.5345 27.3404 15.5695 27.1802 15.57C26.8895 15.57 26.6024 15.4562 26.3882 15.2393L23.2664 12.074L19.2504 13.9806C19.0382 14.0812 18.7996 14.1119 18.5688 14.0684C18.3381 14.0249 18.1271 13.9094 17.966 13.7385C17.805 13.5676 17.7023 13.35 17.6725 13.1171C17.6428 12.8842 17.6877 12.6478 17.8006 12.442L19.8877 8.64908L17.0744 5.79753C16.9091 5.62962 16.8014 5.41357 16.7667 5.18051C16.732 4.94744 16.7722 4.70939 16.8815 4.50064C16.9921 4.29248 17.1656 4.12454 17.3772 4.02079C17.5889 3.91704 17.8279 3.88277 18.0602 3.92286Z" fill="#E95F28"/>
  </g>
  <defs>
    <clipPath id="clip0_1011_267">
      <rect width="32" height="32" fill="white"/>
    </clipPath>
  </defs>
</svg>