<svg xmlns="http://www.w3.org/2000/svg" width="32" height="32" viewBox="0 0 32 32" fill="none">
  <g clip-path="url(#clip0_1011_187)">
    <path d="M31.1109 16.8887C31.113 15.1091 30.8001 13.3431 30.1865 11.6727C29.7776 16.4629 27.2238 18.9233 24.5554 17.7776C22.0558 16.7038 23.7402 12.518 23.8647 10.5207C24.0745 7.13489 23.854 3.25933 17.7038 0.0371094C20.2594 4.926 17.9998 7.96333 15.63 8.14822C13.0007 8.35355 10.5927 5.88866 11.4816 1.88866C8.60335 4.00955 8.5198 7.57933 9.4078 9.88867C10.334 12.2958 9.37047 14.2958 7.1118 14.518C4.58735 14.7669 3.18469 11.8149 4.47802 7.11089C2.15626 9.83924 0.883587 13.3061 0.888687 16.8887C0.888687 25.2344 7.65402 31.9998 15.9998 31.9998C24.3456 31.9998 31.1109 25.2344 31.1109 16.8887Z" fill="#F4900C"/>
    <path d="M25.2388 21.3323C25.3703 24.0737 22.9623 25.1483 21.6663 24.6292C19.7943 23.8799 20.2966 22.5928 19.8148 19.9261C19.333 17.2594 17.4815 15.4079 14.741 14.5928C16.741 20.2221 13.6326 22.2968 12.0032 22.6674C10.3392 23.0461 8.66724 22.6666 8.47613 19.1057C7.4786 20.0957 6.68721 21.2737 6.14771 22.5715C5.60822 23.8693 5.33132 25.2611 5.33302 26.6666C5.33302 26.9937 5.35346 27.3154 5.3819 27.6354C8.11079 30.3323 11.8592 31.9999 15.9997 31.9999C20.1401 31.9999 23.8886 30.3323 26.6175 27.6354C26.6459 27.3154 26.6663 26.9937 26.6663 26.6666C26.6663 24.7226 26.1472 22.9012 25.2388 21.3323Z" fill="#FFCC4D"/>
  </g>
  <defs>
    <clipPath id="clip0_1011_187">
      <rect width="32" height="32" fill="white"/>
    </clipPath>
  </defs>
</svg>