<svg xmlns="http://www.w3.org/2000/svg" width="32" height="32" viewBox="0 0 32 32" fill="none">
  <path d="M12.313 5.53121C12.313 2.63121 14.437 1.94821 15.625 1.96921C18.038 1.96921 18.707 3.97821 18.906 5.04721C19.154 6.37721 18.912 9.55621 18.8 11.0162L18.797 11.0572C18.9659 11.0184 19.1387 10.9993 19.312 11.0002H23.17C24.73 11.0002 26 12.2702 26 13.8302C26 14.6362 25.741 15.3652 25.235 15.8802C26.279 16.3412 27 17.3082 27 18.4242C27 19.4472 26.537 20.3442 25.636 20.8422C26.459 21.3532 27 22.2082 27 23.1742C27 24.2812 26.457 25.2432 25.402 25.7072C25.777 26.0932 26 26.6672 26 27.5012C26 28.8812 25.031 30.0032 23.17 30.0032H19.312C19.267 30.0032 19.222 30.0032 19.178 30.0002H16.047C5.609 30.1722 5 23.4062 5 20.6562C5 15.5002 7.298 13.9672 9.34 12.6052C10.306 11.9612 11.215 11.3552 11.797 10.4222C12.285 9.63921 12.312 8.92221 12.312 5.53221L12.313 5.53121Z" fill="#FFD7C2"/>
  <path d="M18.9998 11C17.9798 11.031 14.9998 11.594 14.9998 13.969C14.9998 15.219 15.4688 15.922 16.0308 16.313C15.4688 16.563 14.9688 17.491 14.9688 18.641C14.9688 19.921 16.0308 20.859 16.0308 20.859C16.0308 20.859 14.9688 21.891 14.9688 23.125C14.9688 24.057 15.3768 24.745 16.0308 25.213C15.6768 25.413 14.9688 26.106 14.9688 27.281C14.9688 28.682 16.2768 29.856 18.8388 29.961C17.5908 29.73 16.9837 28.586 16.9837 27.501C16.9837 27.143 17.1178 26.567 17.4508 26.059H22.9998C23.1324 26.059 23.2595 26.0063 23.3533 25.9126C23.4471 25.8188 23.4998 25.6916 23.4998 25.559C23.4998 25.4264 23.4471 25.2992 23.3533 25.2054C23.2595 25.1117 23.1324 25.059 22.9998 25.059H17.5888C17.1838 24.529 16.9837 23.841 16.9837 23.174C16.9837 22.758 17.1408 22.086 17.5298 21.5H22.9998C23.1324 21.5 23.2595 21.4473 23.3533 21.3536C23.4471 21.2598 23.4998 21.1326 23.4998 21C23.4998 20.8674 23.4471 20.7402 23.3533 20.6464C23.2595 20.5527 23.1324 20.5 22.9998 20.5H17.7498C17.2368 19.95 16.9837 19.175 16.9837 18.424C16.9837 18.067 17.0997 17.519 17.3797 17H22.9998C23.1324 17 23.2595 16.9473 23.3533 16.8536C23.4471 16.7598 23.4998 16.6326 23.4998 16.5C23.4998 16.3674 23.4471 16.2402 23.3533 16.1464C23.2595 16.0527 23.1324 16 22.9998 16H17.8267C17.2627 15.403 16.9837 14.516 16.9837 13.83C16.9837 13.02 17.4268 11.23 18.9998 11.02V11Z" fill="#F1B99B"/>
</svg>