<svg width="26" height="27" viewBox="0 0 26 27" fill="none" xmlns="http://www.w3.org/2000/svg">
<path d="M4.48909 3.476H7.12109V4.932C7.12109 9.16 6.16909 13.36 2.64109 15.264L0.709094 12.604C3.59309 11.036 4.48909 7.9 4.48909 4.932V3.476ZM5.41309 3.476H7.96109V4.932C7.96109 7.62 8.54909 10.896 11.2931 12.828L9.64109 15.516C6.11309 13.388 5.41309 8.74 5.41309 4.932V3.476ZM11.3211 3.476H13.8411V4.932C13.8411 8.796 13.1691 13.416 9.64109 15.516L8.01709 12.828C10.7331 10.924 11.3211 7.676 11.3211 4.932V3.476ZM12.1891 3.476H14.8491V4.932C14.8491 7.928 15.6891 11.036 18.6291 12.604L16.6691 15.264C13.1411 13.36 12.1891 9.16 12.1891 4.932V3.476ZM1.68909 2.272H9.24909V5.24H1.68909V2.272ZM10.0891 2.272H17.4251V5.24H10.0891V2.272ZM18.7131 0.564H22.4371V16.16H18.7131V0.564ZM20.5891 6.78H25.0411V9.86H20.5891V6.78ZM13.6451 16.468C19.1891 16.468 22.6611 18.344 22.6611 21.48C22.6611 24.672 19.1891 26.492 13.6451 26.492C8.10109 26.492 4.65709 24.672 4.65709 21.48C4.65709 18.344 8.10109 16.468 13.6451 16.468ZM13.6451 19.38C10.2291 19.38 8.40909 20.052 8.40909 21.48C8.40909 22.936 10.2291 23.608 13.6451 23.608C17.0611 23.608 18.8811 22.936 18.8811 21.48C18.8811 20.052 17.0611 19.38 13.6451 19.38Z" fill="#3CAFC7"/>
</svg>
