<svg xmlns="http://www.w3.org/2000/svg" width="32" height="32" viewBox="0 0 32 32" fill="none">
  <g clip-path="url(#clip0_1011_207)">
    <path d="M1.53569 18.6666C0.987249 18.6666 0.688583 18.439 0.533916 18.2479C0.381916 18.0604 0.224583 17.7279 0.333916 17.2124L2.7588 5.91816L1.23525 6.00438H1.22369C0.764138 6.00438 0.430805 5.85505 0.221916 5.59638C0.125048 5.4757 0.0570003 5.3345 0.0229575 5.18355C-0.0110852 5.03259 -0.0102254 4.87585 0.0254716 4.72527C0.158805 4.10127 0.810361 3.58216 1.50725 3.54394L5.06992 3.34216C5.13412 3.33775 5.19845 3.33538 5.26281 3.33505C5.39347 3.33505 5.73925 3.33505 5.95881 3.60705C6.18281 3.88438 6.10725 4.23727 6.08236 4.35283L3.30547 17.2924C3.13925 18.0782 2.48858 18.6159 1.64681 18.6631L1.53569 18.6666ZM11.085 16.8888C9.80592 16.8888 8.74281 16.4097 8.01036 15.5031C6.97658 14.2239 6.70636 12.2577 7.22992 9.81683C8.14725 5.53949 10.9704 2.54038 14.2539 2.35461C15.6672 2.27549 16.837 2.75638 17.6255 3.73149C18.6592 5.01061 18.9295 6.97683 18.4059 9.41772C17.4886 13.6933 14.6655 16.6924 11.3801 16.8791C11.2819 16.8858 11.1835 16.8891 11.085 16.8888ZM14.1197 4.67016L13.9979 4.67372C12.2735 4.77238 10.8379 6.72172 10.1579 9.88794C9.73303 11.8684 9.81925 13.3537 10.3997 14.0719C10.6637 14.3991 11.037 14.5653 11.5099 14.5653L11.6344 14.5617C13.3588 14.4648 14.7935 12.5164 15.4726 9.34927C15.8975 7.36883 15.8121 5.88261 15.2326 5.16438C14.9695 4.83638 14.5944 4.67016 14.1197 4.67016ZM24.4228 15.4319C23.1437 15.4319 22.0788 14.9528 21.3455 14.0453C20.3117 12.7662 20.0415 10.7999 20.565 8.35905C21.4832 4.08083 24.3064 1.08261 27.5899 0.897717C29.0148 0.817717 30.1704 1.30038 30.9588 2.27461C31.9926 3.55372 32.2628 5.51994 31.7393 7.95994C30.8228 12.2346 28.0006 15.2337 24.7152 15.4231C24.6157 15.4302 24.5188 15.4319 24.4228 15.4319ZM27.4548 3.21238L27.3339 3.21594C25.6086 3.31461 24.173 5.26394 23.4939 8.42927C23.069 10.4106 23.1552 11.8968 23.7357 12.6142C23.9997 12.9413 24.3748 13.1075 24.8477 13.1075L24.9721 13.1039C26.6957 13.007 28.1312 11.0577 28.8104 7.89149C29.2361 5.91194 29.1508 4.42572 28.5704 3.70749C28.3055 3.37861 27.9304 3.21238 27.4548 3.21238ZM9.77747 31.1119C9.361 31.1117 8.95783 30.9653 8.63821 30.6983C8.31859 30.4313 8.1028 30.0606 8.02844 29.6509C7.95408 29.2411 8.02587 28.8182 8.23129 28.4559C8.43672 28.0936 8.76276 27.8149 9.15258 27.6684C9.45214 27.5564 16.6184 24.9057 27.4068 24.0062C27.874 23.9719 28.3358 24.1235 28.6919 24.4278C29.048 24.7322 29.2695 25.1648 29.3084 25.6316C29.3473 26.0984 29.2003 26.5617 28.8995 26.9208C28.5987 27.2799 28.1683 27.5058 27.7019 27.5493C17.3997 28.4079 10.4699 30.9724 10.4006 30.9982C10.1961 31.0746 9.98458 31.1119 9.77747 31.1119ZM1.77836 25.7777C1.36337 25.7776 0.96151 25.6322 0.642415 25.3669C0.323321 25.1016 0.107101 24.733 0.0312217 24.325C-0.0446572 23.917 0.0245868 23.4953 0.226955 23.133C0.429323 22.7707 0.752063 22.4906 1.13925 22.3413C1.62103 22.1555 13.1535 17.7848 30.1277 16.8915C30.3612 16.8776 30.5952 16.9102 30.816 16.9875C31.0368 17.0647 31.2401 17.1851 31.414 17.3416C31.5879 17.498 31.729 17.6875 31.8291 17.8989C31.9292 18.1104 31.9863 18.3396 31.997 18.5733C32.0094 18.8064 31.9757 19.0398 31.8978 19.2599C31.82 19.4801 31.6995 19.6827 31.5434 19.8563C31.3872 20.0299 31.1984 20.171 30.9876 20.2716C30.7769 20.3722 30.5484 20.4303 30.3153 20.4426C13.9392 21.3048 2.52769 25.6168 2.41392 25.6604C2.21092 25.7377 1.99557 25.7774 1.77836 25.7777Z" fill="#BB1A34"/>
  </g>
  <defs>
    <clipPath id="clip0_1011_207">
      <rect width="32" height="32" fill="white"/>
    </clipPath>
  </defs>
</svg>