<svg xmlns="http://www.w3.org/2000/svg" width="32" height="32" viewBox="0 0 32 32" fill="none">
  <path d="M24.2622 22.4476L24.1082 13.0576C24.0082 12.1656 23.5202 10.9686 21.8492 10.9686C19.8992 11.0616 19.8232 13.0576 19.8232 13.0576L16.8532 7.75161C16.1102 6.62161 14.8922 6.54361 14.1302 7.00861C13.3672 7.47361 13.2012 8.41661 13.2012 8.41661L12.5832 7.61161C12.1172 6.84961 10.7252 6.76161 10.0152 7.19461C8.83617 7.91361 8.66517 9.40361 9.42717 10.2266C9.37717 10.1726 8.79517 9.97061 7.81817 10.5666C7.05617 11.0316 6.82017 12.4226 7.24617 13.2116C7.67117 14.0016 7.73317 14.1246 7.73317 14.1246C7.73317 14.1246 7.07617 13.8146 6.03917 14.5116C5.29817 15.0096 5.03217 16.4876 5.49817 17.2496L7.99417 21.4586L11.4292 27.0716C13.4492 29.9346 17.7552 30.9226 20.8842 29.0216C23.0182 27.7256 24.4652 24.9876 24.2622 22.4476Z" fill="#F4C6AD"/>
  <path d="M13.2924 8.56396L13.2014 8.41596C13.2044 8.39896 13.3104 7.82496 13.7194 7.35596L14.1424 8.03596L15.4034 10.064C16.1717 11.3022 16.9464 12.5366 17.7274 13.767C17.7995 13.8783 17.8244 14.0138 17.7967 14.1436C17.7689 14.2734 17.6908 14.3868 17.5794 14.459C17.468 14.5311 17.3325 14.556 17.2027 14.5283C17.0729 14.5005 16.9595 14.4223 16.8874 14.311C16.1036 13.0753 15.3263 11.8356 14.5554 10.592L13.2924 8.56396ZM9.37737 10.199C9.30316 10.1785 9.22766 10.1632 9.15137 10.153C9.22856 10.157 9.30473 10.1725 9.37737 10.199Z" fill="#F1B99B"/>
  <path d="M9.40997 10.2076C9.68997 10.2896 10.025 10.4596 10.402 10.7956C10.431 10.8206 10.498 10.8956 10.605 11.0466C10.705 11.1886 10.825 11.3706 10.957 11.5866C11.223 12.0166 11.532 12.5566 11.847 13.1206C12.014 13.4166 12.183 13.7206 12.347 14.0186C12.801 14.8366 13.226 15.6036 13.487 16.0056C13.5611 16.1119 13.6737 16.1852 13.8008 16.2101C13.928 16.235 14.0598 16.2096 14.1686 16.1392C14.2774 16.0688 14.3546 15.9589 14.3839 15.8327C14.4133 15.7065 14.3925 15.5738 14.326 15.4626C14.086 15.0906 13.689 14.3766 13.245 13.5746L12.72 12.6316C12.4264 12.1023 12.1224 11.5789 11.808 11.0616C11.6849 10.8596 11.5555 10.6615 11.42 10.4676C11.3175 10.3156 11.1991 10.1748 11.067 10.0476C10.271 9.34065 9.53697 9.14465 8.96997 9.13965C8.99697 9.53565 9.14497 9.91265 9.40997 10.2076ZM7.68997 14.1086C7.58631 14.0857 7.48149 14.0683 7.37597 14.0566C7.52797 14.0616 7.63597 14.0896 7.68997 14.1076V14.1086ZM7.72997 14.1166L7.82397 14.1406C8.14997 14.2276 8.44997 14.3656 8.65197 14.5456C8.75397 14.6356 8.90697 14.8206 9.10397 15.1006C9.29597 15.3716 9.50697 15.7006 9.72597 16.0536C9.90397 16.3396 10.088 16.6446 10.268 16.9436C10.523 17.3646 10.769 17.7716 10.971 18.0836C11.043 18.195 11.1563 18.2733 11.286 18.3011C11.4156 18.329 11.5511 18.3042 11.6625 18.2321C11.7739 18.1601 11.8521 18.0468 11.8799 17.9172C11.9078 17.7875 11.883 17.652 11.811 17.5406C11.582 17.1809 11.3584 16.8179 11.14 16.4516C10.96 16.1526 10.77 15.8386 10.576 15.5266C10.3675 15.1865 10.1494 14.8524 9.92197 14.5246C9.71997 14.2386 9.51097 13.9706 9.31697 13.7976C8.95697 13.4776 8.49297 13.2836 8.08197 13.1746C7.78378 13.094 7.47681 13.0504 7.16797 13.0446C7.19097 13.1016 7.21697 13.1586 7.24597 13.2116C7.61597 13.8986 7.71197 14.0816 7.72997 14.1166Z" fill="#F1B99B"/>
  <path d="M29.9532 22.3719V12.8869C29.8532 11.9869 29.2032 10.7769 27.5162 10.7769C25.5462 10.8719 25.4692 12.8869 25.4692 12.8869L22.4692 7.52687C21.7192 6.38687 20.4892 6.30687 19.7192 6.77687C18.9492 7.24687 18.7802 8.19986 18.7802 8.19986L18.1552 7.38687C17.6852 6.61687 16.2792 6.52687 15.5622 6.96487C14.3712 7.69187 14.1982 9.19687 14.9682 10.0279C14.9182 9.97287 14.3292 9.76987 13.3432 10.3719C12.5732 10.8419 12.3352 12.2469 12.7652 13.0439C13.1952 13.8399 13.2572 13.9649 13.2572 13.9649C13.2572 13.9649 12.5932 13.6529 11.5462 14.3559C10.7972 14.8589 10.5292 16.3519 10.9992 17.1219L13.5202 21.3719L16.9902 27.0419C19.0302 29.9339 23.3802 30.9319 26.5402 29.0119C28.6952 27.7029 30.1582 24.9369 29.9532 22.3719Z" fill="#FFD7C2"/>
  <path d="M18.7851 8.18293L18.7971 8.20393L20.0601 10.2339C20.8313 11.4769 21.609 12.7159 22.3931 13.9509C22.4287 14.0061 22.4749 14.0537 22.5289 14.091C22.583 14.1283 22.6438 14.1546 22.7081 14.1684C22.7723 14.1822 22.8386 14.1832 22.9032 14.1714C22.9678 14.1595 23.0294 14.1351 23.0846 14.0994C23.1397 14.0638 23.1873 14.0176 23.2246 13.9636C23.2619 13.9095 23.2882 13.8486 23.302 13.7844C23.3158 13.7202 23.3168 13.6539 23.305 13.5893C23.2932 13.5247 23.2687 13.4631 23.2331 13.4079C22.4517 12.1774 21.6771 10.9428 20.9091 9.70393C20.4341 8.94293 19.9811 8.21393 19.6471 7.67593L19.3071 7.12793C19.0506 7.43239 18.8715 7.79434 18.7851 8.18293ZM14.8891 9.98993C14.7584 9.96408 14.6253 9.95234 14.4921 9.95493C14.6761 9.94093 14.8101 9.96493 14.8891 9.98993ZM16.1761 10.6459C15.8282 10.3276 15.4037 10.1051 14.9441 9.99993C14.6895 9.70763 14.5369 9.34053 14.5091 8.95393C15.1071 8.94793 16.0051 9.15693 16.8401 9.89893C17.0461 10.0819 17.3071 10.4479 17.5651 10.8389C17.8371 11.2529 18.1481 11.7609 18.4591 12.2789C18.6911 12.6659 18.9211 13.0569 19.1361 13.4219C19.5061 14.0489 19.8311 14.6019 20.0451 14.9319C20.0807 14.9871 20.1052 15.0487 20.117 15.1133C20.1288 15.1779 20.1278 15.2442 20.114 15.3084C20.1002 15.3726 20.0739 15.4335 20.0366 15.4876C19.9993 15.5416 19.9517 15.5878 19.8966 15.6234C19.8414 15.6591 19.7798 15.6835 19.7152 15.6954C19.6506 15.7072 19.5843 15.7062 19.5201 15.6924C19.4558 15.6786 19.395 15.6523 19.3409 15.615C19.2869 15.5777 19.2407 15.5301 19.2051 15.4749C18.8799 14.9545 18.5631 14.4287 18.2551 13.8979C18.0431 13.5369 17.8201 13.1579 17.6011 12.7929C17.3203 12.3194 17.0299 11.8516 16.7301 11.3899C16.4561 10.9739 16.2651 10.7259 16.1761 10.6459ZM13.3741 13.9859C13.3308 13.9683 13.2871 13.9517 13.2431 13.9359C13.086 13.6372 12.927 13.3396 12.7661 13.0429C12.7258 12.9678 12.6917 12.8896 12.6641 12.8089C12.9971 12.8049 13.3971 12.9159 13.7511 13.0589C14.1789 13.2289 14.5758 13.4681 14.9261 13.7669C15.1281 13.9469 15.3411 14.2389 15.5411 14.5439C15.7491 14.8619 15.9721 15.2409 16.1941 15.6279C16.3291 15.8629 16.4631 16.0999 16.5931 16.3299C16.8556 16.8088 17.1314 17.2803 17.4201 17.7439C17.4557 17.7991 17.4802 17.8607 17.492 17.9253C17.5038 17.9899 17.5028 18.0562 17.489 18.1204C17.4752 18.1846 17.4489 18.2455 17.4116 18.2996C17.3743 18.3536 17.3267 18.3998 17.2716 18.4354C17.2164 18.4711 17.1548 18.4955 17.0902 18.5074C17.0256 18.5192 16.9593 18.5182 16.8951 18.5044C16.8308 18.4906 16.77 18.4643 16.7159 18.427C16.6619 18.3897 16.6157 18.3421 16.5801 18.2869C16.3281 17.8969 16.0171 17.3449 15.7031 16.7869C15.5786 16.5658 15.4532 16.3451 15.3271 16.1249C15.1071 15.7419 14.8951 15.3839 14.7041 15.0919C14.5041 14.7869 14.3541 14.5969 14.2621 14.5139C13.9965 14.2911 13.6966 14.1128 13.3741 13.9859ZM26.4031 14.5399C26.2311 14.2429 25.8841 13.6239 25.4691 12.8779C25.5049 12.4246 25.6564 11.988 25.9091 11.6099C26.5071 12.6879 27.0431 13.6499 27.2691 14.0379C27.3356 14.1528 27.3539 14.2893 27.3197 14.4176C27.2856 14.5459 27.2019 14.6554 27.0871 14.7219C26.9722 14.7885 26.8356 14.8067 26.7074 14.7726C26.5791 14.7385 26.4696 14.6548 26.4031 14.5399Z" fill="#F1B99B"/>
  <path d="M8.05173 4.81677L6.83173 3.16577C6.78767 3.10623 6.75837 3.03709 6.74623 2.96403C6.7341 2.89096 6.73948 2.81606 6.76193 2.74548C6.78438 2.6749 6.82327 2.61065 6.87539 2.55803C6.92751 2.5054 6.99137 2.4659 7.06173 2.44277L8.42173 2.01977C8.72173 1.92677 9.02173 2.17477 9.00173 2.49477L8.86173 4.56877C8.82173 4.99277 8.30173 5.15777 8.05173 4.81677ZM5.69173 6.43977L3.83173 5.65977C3.76442 5.6324 3.70487 5.58889 3.65833 5.53308C3.61179 5.47727 3.5797 5.41087 3.56488 5.33974C3.55006 5.2686 3.55297 5.1949 3.57334 5.12515C3.59372 5.0554 3.63094 4.99174 3.68173 4.93977L4.65173 3.90977C4.70159 3.85715 4.76343 3.81735 4.83197 3.79377C4.90052 3.77018 4.97375 3.76351 5.04543 3.77431C5.11711 3.78511 5.18512 3.81307 5.24368 3.8558C5.30223 3.89854 5.34959 3.95479 5.38173 4.01977L6.27173 5.82977C6.44173 6.19977 6.07173 6.59977 5.69173 6.43977ZM2.51973 9.35877L4.59073 9.08877C5.01573 9.03677 5.15073 8.48677 4.79773 8.23877L3.06773 7.07577C3.00482 7.03503 2.9331 7.00986 2.85853 7.00235C2.78395 6.99483 2.70866 7.00519 2.63888 7.03255C2.5691 7.05992 2.50684 7.1035 2.45726 7.15971C2.40767 7.21591 2.37218 7.28312 2.35373 7.35577L2.01173 8.78777C1.99356 8.86083 1.99348 8.93721 2.0115 9.01031C2.02952 9.0834 2.06509 9.15101 2.11513 9.20725C2.16517 9.2635 2.22817 9.30669 2.29867 9.3331C2.36918 9.3595 2.44505 9.36831 2.51973 9.35877Z" fill="#46A4FB"/>
</svg>