<svg xmlns="http://www.w3.org/2000/svg" width="32" height="32" viewBox="0 0 32 32" fill="none">
  <g clip-path="url(#clip0_1009_184)">
    <path d="M32 16C32 24.8364 24.8364 32 16 32C7.16356 32 0 24.8364 0 16C0 7.16356 7.16356 0 16 0C24.8364 0 32 7.16356 32 16Z" fill="#FFCC4D"/>
    <path d="M15.9999 26.6667C17.9636 26.6667 19.5554 24.6769 19.5554 22.2223C19.5554 19.7677 17.9636 17.7778 15.9999 17.7778C14.0362 17.7778 12.4443 19.7677 12.4443 22.2223C12.4443 24.6769 14.0362 26.6667 15.9999 26.6667Z" fill="#664500"/>
    <path d="M10.6666 15.1109C11.8939 15.1109 12.8888 13.718 12.8888 11.9998C12.8888 10.2816 11.8939 8.88867 10.6666 8.88867C9.43926 8.88867 8.44434 10.2816 8.44434 11.9998C8.44434 13.718 9.43926 15.1109 10.6666 15.1109Z" fill="#664500"/>
    <path d="M21.3336 15.1109C22.5609 15.1109 23.5558 13.718 23.5558 11.9998C23.5558 10.2816 22.5609 8.88867 21.3336 8.88867C20.1063 8.88867 19.1113 10.2816 19.1113 11.9998C19.1113 13.718 20.1063 15.1109 21.3336 15.1109Z" fill="#664500"/>
  </g>
  <defs>
    <clipPath id="clip0_1009_184">
      <rect width="32" height="32" fill="white"/>
    </clipPath>
  </defs>
</svg>